<?xml version="1.0" encoding="UTF-8" standalone="no"?>
<svg
   width="130"
   height="30.523001"
   viewBox="0 0 130 30.523001"
   fill="none"
   version="1.1"
   id="svg5852"
   sodipodi:docname="conad-logo.svg"
   inkscape:version="1.2.2 (732a01da63, 2022-12-09)"
   xmlns:inkscape="http://www.inkscape.org/namespaces/inkscape"
   xmlns:sodipodi="http://sodipodi.sourceforge.net/DTD/sodipodi-0.dtd"
   xmlns="http://www.w3.org/2000/svg"
   xmlns:svg="http://www.w3.org/2000/svg">
  <sodipodi:namedview
     id="namedview5854"
     pagecolor="#505050"
     bordercolor="#eeeeee"
     borderopacity="1"
     inkscape:showpageshadow="0"
     inkscape:pageopacity="0"
     inkscape:pagecheckerboard="0"
     inkscape:deskcolor="#505050"
     showgrid="false"
     inkscape:zoom="3.4167832"
     inkscape:cx="17.560377"
     inkscape:cy="21.072452"
     inkscape:window-width="1920"
     inkscape:window-height="1017"
     inkscape:window-x="-8"
     inkscape:window-y="-8"
     inkscape:window-maximized="1"
     inkscape:current-layer="svg5852" />
  <g
     clip-path="url(#a)"
     id="g5845"
     transform="translate(-0.5,-1.026)">
    <path
       d="M 8.405,6.025 A 5.709,5.709 0 0 0 4.863,5.851 5.86,5.86 0 0 0 1.285,8.661 6.078,6.078 0 0 0 0.5,11.657 c 0,1.741 0.747,3.437 2.092,4.6 -0.5,0.446 -0.936,0.991 -1.305,1.641 A 6.103,6.103 0 0 0 0.5,20.9 c 0,2.083 1.055,4.11 2.94,5.223 1.558,0.925 3.378,1.018 4.965,0.424 0.477,2.835 2.892,5.002 5.798,5.002 2.902,0 5.313,-2.164 5.791,-4.997 a 5.722,5.722 0 0 0 3.55,0.17 5.86,5.86 0 0 0 3.572,-2.807 6.077,6.077 0 0 0 0.588,-4.573 5.95,5.95 0 0 0 -1.936,-3.056 6.097,6.097 0 0 0 2.127,-4.634 c 0,-1.02 -0.253,-2.051 -0.787,-2.995 A 5.866,5.866 0 0 0 23.526,5.849 5.7,5.7 0 0 0 19.996,6.022 C 19.519,3.19 17.106,1.026 14.203,1.026 c -2.908,0 -5.324,2.166 -5.799,5 z"
       fill="#f06c00"
       id="path5837"
       style="fill:#f37121;fill-opacity:1" />
    <path
       fill-rule="evenodd"
       clip-rule="evenodd"
       d="m 40.127,5.917 c 0.75,0 2.224,0.156 3.029,1.008 v -0.63 h 4.007 c 0.083,0.003 0.704,0.05 0.704,0.743 0,0.35 0.012,1.46 0.026,2.645 l 0.008,0.765 0.034,2.72 v 0.053 h -4.78 c -0.197,-2.151 -3.028,-2.176 -3.028,-2.176 -2.924,-0.033 -4.797,2.366 -4.797,5.153 0,2.78 1.525,5.227 5.096,5.227 2.104,0 3.153,-1.414 3.947,-3.035 l 4.356,2.856 c -1.788,3.244 -5.211,5.481 -8.602,5.481 -5.455,0 -9.868,-4.327 -9.868,-10.53 0,-5.748 4.416,-10.28 9.868,-10.28 z m 62.038,-0.066 6.634,16.103 c 0,0 1.39,0 1.39,0.87 v 3.84 h -8.318 v -3.84 c 0,0 0.002,-0.87 1.361,-0.87 l -0.446,-1.017 h -6.767 l -0.032,0.065 -0.133,0.27 -0.056,0.115 -0.112,0.232 c -0.09,0.185 -0.161,0.335 -0.156,0.335 1.307,0 1.38,0.792 1.383,0.864 v 3.847 h -8.288 v -3.842 c 0,0 0,-0.869 1.365,-0.869 L 94.98,10.44 H 93.582 V 6.73 c 0,0 0.01,-0.879 1.689,-0.879 z m 11.096,0.057 h 8.216 c 5.42,0.01 9.023,4.65 9.023,10.377 0,5.727 -3.595,10.37 -9.036,10.38 h -9.862 v -3.842 c 0,-0.826 1.672,-0.869 1.672,-0.869 V 10.441 h -1.672 V 6.73 c 0,-0.84 1.501,-0.826 1.659,-0.822 z M 58.581,5.891 c 5.446,0 9.859,4.652 9.859,10.381 0,5.735 -4.413,10.38 -9.858,10.38 -5.445,0 -9.853,-4.645 -9.853,-10.38 0,-5.728 4.408,-10.381 9.853,-10.381 z m 16.55,-0.047 6.914,10.728 V 10.435 H 80.4 V 6.719 c 0,0 -0.036,-0.875 1.645,-0.875 h 5.022 c 0.273,0.006 1.566,0.075 1.6,0.875 0.034,0.893 0,3.716 0,3.716 h -1.65 V 26.652 H 82.045 L 75.131,16.261 v 5.682 c 1.618,0 1.683,0.807 1.686,0.871 v 3.838 h -8.371 v -3.834 c 0,-0.875 1.71,-0.875 1.71,-0.875 V 10.435 h -1.71 V 6.719 c 0,0 0.1,-0.875 1.71,-0.875 z m 46.297,5.21 h -3.225 v 10.28 h 3.241 c 2.683,-0.01 3.988,-2.312 3.988,-5.136 0,-2.839 -1.324,-5.145 -4.004,-5.145 z m -62.818,0 c -2.704,0 -4.247,2.29 -4.247,5.132 0,2.835 1.543,5.138 4.247,5.138 2.688,0 4.002,-2.303 4.002,-5.138 0,-2.842 -1.314,-5.132 -4.002,-5.132 z m 40.777,0 -2.178,5.535 h 4.368 z"
       fill="#e20714"
       id="path5839" />
    <path
       d="m 14.206,2.63 c 2.452,0 4.442,2.038 4.442,4.548 0,0.76 -0.122,1.353 -0.5,2.098 0.444,-0.706 0.883,-1.107 1.525,-1.485 2.12,-1.258 4.838,-0.51 6.065,1.667 1.228,2.175 0.498,4.957 -1.626,6.219 a 4.006,4.006 0 0 1 -1.899,0.593 c 0.776,0.072 1.303,0.268 1.911,0.63 2.122,1.25 2.853,4.035 1.62,6.213 -1.223,2.175 -3.942,2.923 -6.07,1.668 -0.652,-0.388 -1.099,-0.804 -1.547,-1.537 0.394,0.761 0.52,1.37 0.52,2.14 0,2.51 -1.989,4.556 -4.441,4.556 -2.458,0 -4.447,-2.046 -4.447,-4.557 0,-0.8 0.14,-1.429 0.56,-2.202 -1.25,2.133 -3.928,2.85 -6.03,1.6 C 2.165,23.526 1.435,20.739 2.662,18.561 3.405,17.25 4.477,16.447 6.053,16.261 5.333,16.188 4.85,16.007 4.29,15.679 2.165,14.421 1.435,11.636 2.662,9.461 3.888,7.281 6.604,6.535 8.732,7.796 9.383,8.179 9.838,8.606 10.283,9.33 9.886,8.57 9.759,7.959 9.759,7.178 c 0,-2.51 1.989,-4.547 4.447,-4.547 z m 0,9.101 c -2.458,0 -4.447,2.04 -4.447,4.55 0,2.516 1.989,4.553 4.447,4.553 2.452,0 4.442,-2.037 4.442,-4.554 0,-2.51 -1.99,-4.549 -4.442,-4.549 z"
       fill="#fed404"
       id="path5841"
       style="fill:#ffd600;fill-opacity:1" />
  </g>
  <defs
     id="defs5850">
    <clipPath
       id="a">
      <path
         fill="#ffffff"
         transform="translate(0.5)"
         d="M 0,0 H 130 V 40 H 0 Z"
         id="path5847" />
    </clipPath>
  </defs>
</svg>
