<?xml version="1.0" encoding="UTF-8" standalone="no"?>
<!DOCTYPE svg PUBLIC "-//W3C//DTD SVG 1.1//EN" "http://www.w3.org/Graphics/SVG/1.1/DTD/svg11.dtd">
<svg xmlns="http://www.w3.org/2000/svg" version="1.1" viewBox="0.00 0.00 99.00 150.00">
<g stroke-width="2.00" fill="none" stroke-linecap="butt">
<path stroke="#806e00" vector-effect="non-scaling-stroke" d="
  M 85.51 43.33
  Q 76.07 28.05 66.45 12.88
  C 60.39 3.33 47.89 0.17 38.82 7.01
  Q 35.75 9.32 30.66 17.31
  Q 22.37 30.29 14.18 43.37
  Q 13.94 43.75 13.50 43.75
  L 4.02 43.76
  A 0.78 0.78 0.0 0 0 3.24 44.54
  L 3.26 48.10
  A 0.66 0.65 89.6 0 0 3.91 48.75
  L 94.88 48.75
  Q 95.51 48.75 95.51 48.12
  L 95.49 44.40
  A 0.66 0.65 89.6 0 0 94.84 43.75
  L 86.25 43.75
  Q 85.76 43.75 85.51 43.33"
/>
<path stroke="#806e00" vector-effect="non-scaling-stroke" d="
  M 13.98 65.49
  A 0.81 0.81 0.0 0 1 14.31 67.05
  C 4.30 70.83 3.89 57.44 12.27 58.62
  C 13.97 58.87 15.09 58.53 15.42 56.77
  Q 15.52 56.29 15.07 56.07
  C 2.18 49.82 -2.02 70.94 10.41 71.47
  C 14.96 71.66 18.67 68.56 19.23 64.00
  A 1.78 1.77 -86.4 0 0 17.47 62.00
  L 12.29 62.00
  A 1.75 1.75 0.0 0 0 12.18 65.49
  Q 12.97 65.54 13.98 65.49"
/>
<path stroke="#806e00" vector-effect="non-scaling-stroke" d="
  M 29.09 68.18
  Q 30.75 69.19 31.48 71.01
  Q 31.68 71.50 32.21 71.50
  L 35.01 71.50
  Q 35.65 71.50 35.30 70.96
  L 33.35 67.86
  Q 33.08 67.43 33.50 67.14
  C 38.00 64.02 37.36 57.89 32.72 55.65
  C 30.82 54.73 28.28 54.93 26.17 55.02
  A 1.74 1.74 0.0 0 0 24.50 56.76
  L 24.50 70.87
  Q 24.50 71.50 25.13 71.50
  L 27.21 71.50
  Q 27.93 71.50 27.97 70.78
  L 28.07 68.72
  A 0.67 0.67 0.0 0 1 29.09 68.18"
/>
<path stroke="#806e00" vector-effect="non-scaling-stroke" d="
  M 52.18 57.08
  C 51.23 53.56 46.43 54.59 45.42 58.13
  Q 43.63 64.44 41.96 70.82
  Q 41.78 71.50 42.48 71.50
  L 44.65 71.50
  A 0.89 0.89 0.0 0 0 45.51 70.83
  L 46.10 68.65
  Q 46.20 68.25 46.62 68.25
  L 51.09 68.25
  Q 51.68 68.25 51.82 68.82
  L 52.35 70.89
  A 0.80 0.80 0.0 0 0 53.13 71.50
  L 55.49 71.50
  Q 56.07 71.50 55.92 70.93
  Q 54.04 63.96 52.18 57.08"
/>
<path stroke="#806e00" vector-effect="non-scaling-stroke" d="
  M 70.48 63.62
  L 64.97 55.40
  A 1.90 1.89 28.1 0 0 61.50 56.45
  L 61.50 70.88
  Q 61.50 71.51 62.13 71.51
  L 64.36 71.48
  Q 65.00 71.47 65.00 70.83
  L 65.00 62.99
  A 0.38 0.38 0.0 0 1 65.70 62.78
  L 71.00 70.98
  A 2.04 2.04 0.0 0 0 74.75 69.88
  L 74.75 55.62
  Q 74.75 54.99 74.12 54.99
  L 71.77 55.02
  Q 71.00 55.02 71.00 55.79
  L 71.00 63.46
  Q 71.00 64.40 70.48 63.62"
/>
<path stroke="#806e00" vector-effect="non-scaling-stroke" d="
  M 90.80 56.88
  C 90.04 54.40 86.99 54.68 85.27 55.80
  A 1.35 1.32 -9.8 0 0 84.72 56.56
  L 80.81 70.84
  Q 80.63 71.50 81.32 71.50
  L 83.55 71.50
  Q 84.11 71.50 84.29 70.97
  L 85.04 68.76
  Q 85.21 68.25 85.75 68.25
  L 90.05 68.25
  Q 90.62 68.25 90.73 68.81
  L 91.14 70.88
  A 0.75 0.74 84.3 0 0 91.87 71.48
  L 94.25 71.51
  A 0.57 0.56 82.9 0 0 94.80 70.80
  Q 92.92 63.69 90.80 56.88"
/>
<path stroke="#806e00" vector-effect="non-scaling-stroke" d="
  M 7.28 91.26
  C 11.59 91.60 14.98 88.92 14.88 84.51
  C 14.75 79.27 8.31 76.39 3.86 78.49
  A 1.08 1.07 77.4 0 0 3.25 79.46
  L 3.25 94.01
  Q 3.25 94.77 4.01 94.76
  L 6.11 94.73
  Q 6.75 94.72 6.75 94.08
  L 6.75 91.75
  Q 6.75 91.22 7.28 91.26"
/>
<path stroke="#806e00" vector-effect="non-scaling-stroke" d="
  M 20.22 91.50
  L 25.02 91.50
  A 0.56 0.56 0.0 0 1 25.58 92.06
  Q 25.60 95.41 28.97 94.69
  Q 29.65 94.54 29.48 93.86
  Q 27.74 87.25 26.02 80.74
  Q 25.21 77.67 22.24 78.00
  C 19.81 78.27 19.39 80.07 18.80 82.10
  Q 17.06 88.06 15.54 94.14
  A 0.53 0.53 0.0 0 0 16.11 94.80
  L 18.35 94.59
  A 0.90 0.89 -85.3 0 0 19.13 93.92
  L 19.64 91.95
  Q 19.75 91.50 20.22 91.50"
/>
<path stroke="#806e00" vector-effect="non-scaling-stroke" d="
  M 32.51 79.43
  L 32.51 93.33
  A 1.40 1.40 0.0 0 0 33.91 94.73
  L 36.03 94.73
  A 8.72 8.17 0.0 0 0 44.75 86.56
  L 44.75 86.20
  A 8.72 8.17 0.0 0 0 36.03 78.03
  L 33.91 78.03
  A 1.40 1.40 0.0 0 0 32.51 79.43"
/>
<path stroke="#806e00" vector-effect="non-scaling-stroke" d="
  M 50.99 91.50
  L 55.79 91.50
  Q 56.27 91.50 56.37 91.97
  L 56.77 93.89
  Q 56.92 94.59 57.63 94.64
  L 59.88 94.79
  Q 60.61 94.84 60.42 94.14
  Q 58.74 87.85 57.04 81.53
  C 56.26 78.66 54.50 77.30 51.60 78.47
  A 2.38 2.37 -3.4 0 0 50.19 80.05
  L 46.34 94.24
  Q 46.17 94.87 46.83 94.81
  L 49.34 94.58
  Q 49.98 94.52 50.07 93.88
  L 50.32 92.08
  A 0.69 0.68 -85.5 0 1 50.99 91.50"
/>
<path stroke="#806e00" vector-effect="non-scaling-stroke" d="
  M 67.30 86.06
  C 69.57 89.01 71.39 94.64 75.59 94.70
  Q 76.25 94.71 76.25 94.05
  L 76.25 78.46
  Q 76.25 77.92 75.71 77.95
  L 73.42 78.11
  Q 72.75 78.16 72.75 78.82
  L 72.75 86.74
  A 0.32 0.32 0.0 0 1 72.16 86.91
  C 70.48 84.35 67.45 77.57 63.86 78.03
  Q 63.25 78.11 63.25 78.72
  L 63.25 94.20
  Q 63.25 94.93 63.97 94.82
  L 66.11 94.48
  Q 66.75 94.38 66.75 93.73
  L 66.75 86.24
  Q 66.75 85.33 67.30 86.06"
/>
<path stroke="#806e00" vector-effect="non-scaling-stroke" d="
  M 96.05 86.36
  A 8.22 8.22 0.0 0 0 87.83 78.14
  A 8.22 8.22 0.0 0 0 79.61 86.36
  A 8.22 8.22 0.0 0 0 87.83 94.58
  A 8.22 8.22 0.0 0 0 96.05 86.36"
/>
<path stroke="#806e00" vector-effect="non-scaling-stroke" d="
  M 32.68 137.31
  C 38.49 146.61 51.92 149.14 60.42 142.34
  Q 63.19 140.13 67.54 133.28
  Q 76.12 119.76 84.67 106.20
  A 0.95 0.95 0.0 0 1 85.48 105.75
  L 94.25 105.75
  A 1.25 1.25 0.0 0 0 95.50 104.50
  L 95.50 101.50
  Q 95.50 101.00 95.00 101.00
  L 3.75 101.00
  Q 3.24 101.00 3.24 101.51
  L 3.26 104.86
  A 0.91 0.90 -0.3 0 0 4.17 105.75
  L 12.49 105.75
  Q 12.98 105.75 13.24 106.16
  Q 22.95 121.76 32.68 137.31"
/>
<path stroke="#806e00" vector-effect="non-scaling-stroke" d="
  M 53.56 10.94
  C 46.56 8.92 42.42 12.18 38.55 18.11
  Q 30.38 30.62 22.37 43.09
  Q 21.94 43.75 22.73 43.75
  L 77.01 43.75
  Q 77.85 43.75 77.40 43.04
  Q 70.08 31.49 62.59 19.85
  C 59.57 15.17 58.05 12.24 53.56 10.94"
/>
<path stroke="#806e00" vector-effect="non-scaling-stroke" d="
  M 28.00 59.05
  L 28.00 64.15
  A 0.58 0.58 0.0 0 0 28.59 64.73
  L 29.67 64.73
  A 3.34 2.97 -0.1 0 0 33.00 61.76
  L 33.00 61.44
  A 3.34 2.97 -0.1 0 0 29.65 58.47
  L 28.57 58.47
  A 0.58 0.58 0.0 0 0 28.00 59.05"
/>
<path stroke="#806e00" vector-effect="non-scaling-stroke" d="
  M 48.59 59.52
  L 47.31 64.09
  Q 47.13 64.75 47.82 64.75
  L 49.97 64.75
  A 0.57 0.57 0.0 0 0 50.52 64.03
  L 49.22 59.52
  A 0.33 0.33 0.0 0 0 48.59 59.52"
/>
<path stroke="#806e00" vector-effect="non-scaling-stroke" d="
  M 87.54 59.00
  L 86.24 64.04
  Q 86.06 64.75 86.79 64.75
  L 89.05 64.75
  Q 89.62 64.75 89.47 64.20
  L 88.02 59.00
  A 0.25 0.25 0.0 0 0 87.54 59.00"
/>
<path stroke="#806e00" vector-effect="non-scaling-stroke" d="
  M 6.75 82.36
  L 6.73 87.10
  A 0.64 0.64 0.0 0 0 7.37 87.74
  L 8.05 87.75
  A 3.38 2.89 0.2 0 0 11.44 84.87
  L 11.44 84.63
  A 3.38 2.89 0.2 0 0 8.07 81.73
  L 7.39 81.72
  A 0.64 0.64 0.0 0 0 6.75 82.36"
/>
<path stroke="#806e00" vector-effect="non-scaling-stroke" d="
  M 20.95 87.36
  A 0.33 0.33 0.0 0 0 21.27 87.77
  L 23.88 87.73
  A 0.33 0.33 0.0 0 0 24.19 87.32
  L 22.83 82.39
  A 0.33 0.33 0.0 0 0 22.19 82.40
  L 20.95 87.36"
/>
<path stroke="#806e00" vector-effect="non-scaling-stroke" d="
  M 36.01 82.09
  L 35.99 90.61
  A 0.42 0.42 0.0 0 0 36.40 91.03
  L 36.53 91.03
  A 4.67 4.61 0.2 0 0 41.22 86.44
  L 41.22 86.30
  A 4.67 4.61 0.2 0 0 36.57 81.67
  L 36.44 81.67
  A 0.42 0.42 0.0 0 0 36.01 82.09"
/>
<path stroke="#806e00" vector-effect="non-scaling-stroke" d="
  M 51.77 87.31
  A 0.32 0.32 0.0 0 0 52.07 87.72
  L 54.61 87.78
  A 0.32 0.32 0.0 0 0 54.93 87.39
  L 53.77 82.40
  A 0.32 0.32 0.0 0 0 53.15 82.38
  L 51.77 87.31"
/>
<path stroke="#806e00" vector-effect="non-scaling-stroke" d="
  M 92.48 86.36
  A 4.65 4.65 0.0 0 0 87.83 81.71
  A 4.65 4.65 0.0 0 0 83.18 86.36
  A 4.65 4.65 0.0 0 0 87.83 91.01
  A 4.65 4.65 0.0 0 0 92.48 86.36"
/>
<path stroke="#806e00" vector-effect="non-scaling-stroke" d="
  M 39.92 135.12
  C 43.14 140.00 51.11 139.97 54.78 137.63
  Q 57.52 135.88 62.27 128.48
  Q 69.42 117.35 76.59 106.36
  A 0.40 0.39 -73.6 0 0 76.26 105.75
  L 21.75 105.75
  A 0.46 0.45 -15.8 0 0 21.36 106.44
  Q 30.47 120.77 39.92 135.12"
/>
</g>
<path fill="#ffdc00" d="
  M 49.09 0.00
  L 51.31 0.00
  C 61.45 0.88 66.05 5.84 71.67 14.71
  Q 79.64 27.30 87.41 40.04
  A 0.99 0.98 73.8 0 0 88.24 40.50
  L 95.00 40.50
  A 3.75 3.75 0.0 0 1 98.75 44.25
  L 98.75 105.25
  A 3.75 3.75 0.0 0 1 95.00 109.00
  L 87.30 109.00
  Q 86.83 109.00 86.58 109.39
  Q 77.17 124.31 67.57 139.11
  C 58.12 153.71 38.50 152.59 29.39 138.13
  Q 20.38 123.83 11.36 109.47
  A 0.94 0.93 -14.5 0 0 10.60 109.03
  C 6.60 108.91 1.63 110.51 0.00 105.66
  L 0.00 43.97
  C 1.74 39.06 7.53 40.52 11.50 40.49
  A 0.92 0.91 16.3 0 0 12.27 40.07
  Q 21.56 25.44 30.83 10.82
  Q 37.14 0.88 49.09 0.00
  Z
  M 85.51 43.33
  Q 76.07 28.05 66.45 12.88
  C 60.39 3.33 47.89 0.17 38.82 7.01
  Q 35.75 9.32 30.66 17.31
  Q 22.37 30.29 14.18 43.37
  Q 13.94 43.75 13.50 43.75
  L 4.02 43.76
  A 0.78 0.78 0.0 0 0 3.24 44.54
  L 3.26 48.10
  A 0.66 0.65 89.6 0 0 3.91 48.75
  L 94.88 48.75
  Q 95.51 48.75 95.51 48.12
  L 95.49 44.40
  A 0.66 0.65 89.6 0 0 94.84 43.75
  L 86.25 43.75
  Q 85.76 43.75 85.51 43.33
  Z
  M 13.98 65.49
  A 0.81 0.81 0.0 0 1 14.31 67.05
  C 4.30 70.83 3.89 57.44 12.27 58.62
  C 13.97 58.87 15.09 58.53 15.42 56.77
  Q 15.52 56.29 15.07 56.07
  C 2.18 49.82 -2.02 70.94 10.41 71.47
  C 14.96 71.66 18.67 68.56 19.23 64.00
  A 1.78 1.77 -86.4 0 0 17.47 62.00
  L 12.29 62.00
  A 1.75 1.75 0.0 0 0 12.18 65.49
  Q 12.97 65.54 13.98 65.49
  Z
  M 29.09 68.18
  Q 30.75 69.19 31.48 71.01
  Q 31.68 71.50 32.21 71.50
  L 35.01 71.50
  Q 35.65 71.50 35.30 70.96
  L 33.35 67.86
  Q 33.08 67.43 33.50 67.14
  C 38.00 64.02 37.36 57.89 32.72 55.65
  C 30.82 54.73 28.28 54.93 26.17 55.02
  A 1.74 1.74 0.0 0 0 24.50 56.76
  L 24.50 70.87
  Q 24.50 71.50 25.13 71.50
  L 27.21 71.50
  Q 27.93 71.50 27.97 70.78
  L 28.07 68.72
  A 0.67 0.67 0.0 0 1 29.09 68.18
  Z
  M 52.18 57.08
  C 51.23 53.56 46.43 54.59 45.42 58.13
  Q 43.63 64.44 41.96 70.82
  Q 41.78 71.50 42.48 71.50
  L 44.65 71.50
  A 0.89 0.89 0.0 0 0 45.51 70.83
  L 46.10 68.65
  Q 46.20 68.25 46.62 68.25
  L 51.09 68.25
  Q 51.68 68.25 51.82 68.82
  L 52.35 70.89
  A 0.80 0.80 0.0 0 0 53.13 71.50
  L 55.49 71.50
  Q 56.07 71.50 55.92 70.93
  Q 54.04 63.96 52.18 57.08
  Z
  M 70.48 63.62
  L 64.97 55.40
  A 1.90 1.89 28.1 0 0 61.50 56.45
  L 61.50 70.88
  Q 61.50 71.51 62.13 71.51
  L 64.36 71.48
  Q 65.00 71.47 65.00 70.83
  L 65.00 62.99
  A 0.38 0.38 0.0 0 1 65.70 62.78
  L 71.00 70.98
  A 2.04 2.04 0.0 0 0 74.75 69.88
  L 74.75 55.62
  Q 74.75 54.99 74.12 54.99
  L 71.77 55.02
  Q 71.00 55.02 71.00 55.79
  L 71.00 63.46
  Q 71.00 64.40 70.48 63.62
  Z
  M 90.80 56.88
  C 90.04 54.40 86.99 54.68 85.27 55.80
  A 1.35 1.32 -9.8 0 0 84.72 56.56
  L 80.81 70.84
  Q 80.63 71.50 81.32 71.50
  L 83.55 71.50
  Q 84.11 71.50 84.29 70.97
  L 85.04 68.76
  Q 85.21 68.25 85.75 68.25
  L 90.05 68.25
  Q 90.62 68.25 90.73 68.81
  L 91.14 70.88
  A 0.75 0.74 84.3 0 0 91.87 71.48
  L 94.25 71.51
  A 0.57 0.56 82.9 0 0 94.80 70.80
  Q 92.92 63.69 90.80 56.88
  Z
  M 7.28 91.26
  C 11.59 91.60 14.98 88.92 14.88 84.51
  C 14.75 79.27 8.31 76.39 3.86 78.49
  A 1.08 1.07 77.4 0 0 3.25 79.46
  L 3.25 94.01
  Q 3.25 94.77 4.01 94.76
  L 6.11 94.73
  Q 6.75 94.72 6.75 94.08
  L 6.75 91.75
  Q 6.75 91.22 7.28 91.26
  Z
  M 20.22 91.50
  L 25.02 91.50
  A 0.56 0.56 0.0 0 1 25.58 92.06
  Q 25.60 95.41 28.97 94.69
  Q 29.65 94.54 29.48 93.86
  Q 27.74 87.25 26.02 80.74
  Q 25.21 77.67 22.24 78.00
  C 19.81 78.27 19.39 80.07 18.80 82.10
  Q 17.06 88.06 15.54 94.14
  A 0.53 0.53 0.0 0 0 16.11 94.80
  L 18.35 94.59
  A 0.90 0.89 -85.3 0 0 19.13 93.92
  L 19.64 91.95
  Q 19.75 91.50 20.22 91.50
  Z
  M 32.51 79.43
  L 32.51 93.33
  A 1.40 1.40 0.0 0 0 33.91 94.73
  L 36.03 94.73
  A 8.72 8.17 0.0 0 0 44.75 86.56
  L 44.75 86.20
  A 8.72 8.17 0.0 0 0 36.03 78.03
  L 33.91 78.03
  A 1.40 1.40 0.0 0 0 32.51 79.43
  Z
  M 50.99 91.50
  L 55.79 91.50
  Q 56.27 91.50 56.37 91.97
  L 56.77 93.89
  Q 56.92 94.59 57.63 94.64
  L 59.88 94.79
  Q 60.61 94.84 60.42 94.14
  Q 58.74 87.85 57.04 81.53
  C 56.26 78.66 54.50 77.30 51.60 78.47
  A 2.38 2.37 -3.4 0 0 50.19 80.05
  L 46.34 94.24
  Q 46.17 94.87 46.83 94.81
  L 49.34 94.58
  Q 49.98 94.52 50.07 93.88
  L 50.32 92.08
  A 0.69 0.68 -85.5 0 1 50.99 91.50
  Z
  M 67.30 86.06
  C 69.57 89.01 71.39 94.64 75.59 94.70
  Q 76.25 94.71 76.25 94.05
  L 76.25 78.46
  Q 76.25 77.92 75.71 77.95
  L 73.42 78.11
  Q 72.75 78.16 72.75 78.82
  L 72.75 86.74
  A 0.32 0.32 0.0 0 1 72.16 86.91
  C 70.48 84.35 67.45 77.57 63.86 78.03
  Q 63.25 78.11 63.25 78.72
  L 63.25 94.20
  Q 63.25 94.93 63.97 94.82
  L 66.11 94.48
  Q 66.75 94.38 66.75 93.73
  L 66.75 86.24
  Q 66.75 85.33 67.30 86.06
  Z
  M 96.05 86.36
  A 8.22 8.22 0.0 0 0 87.83 78.14
  A 8.22 8.22 0.0 0 0 79.61 86.36
  A 8.22 8.22 0.0 0 0 87.83 94.58
  A 8.22 8.22 0.0 0 0 96.05 86.36
  Z
  M 32.68 137.31
  C 38.49 146.61 51.92 149.14 60.42 142.34
  Q 63.19 140.13 67.54 133.28
  Q 76.12 119.76 84.67 106.20
  A 0.95 0.95 0.0 0 1 85.48 105.75
  L 94.25 105.75
  A 1.25 1.25 0.0 0 0 95.50 104.50
  L 95.50 101.50
  Q 95.50 101.00 95.00 101.00
  L 3.75 101.00
  Q 3.24 101.00 3.24 101.51
  L 3.26 104.86
  A 0.91 0.90 -0.3 0 0 4.17 105.75
  L 12.49 105.75
  Q 12.98 105.75 13.24 106.16
  Q 22.95 121.76 32.68 137.31
  Z"
/>
<path fill="#000000" d="
  M 86.25 43.75
  L 94.84 43.75
  A 0.66 0.65 89.6 0 1 95.49 44.40
  L 95.51 48.12
  Q 95.51 48.75 94.88 48.75
  L 3.91 48.75
  A 0.66 0.65 89.6 0 1 3.26 48.10
  L 3.24 44.54
  A 0.78 0.78 0.0 0 1 4.02 43.76
  L 13.50 43.75
  Q 13.94 43.75 14.18 43.37
  Q 22.37 30.29 30.66 17.31
  Q 35.75 9.32 38.82 7.01
  C 47.89 0.17 60.39 3.33 66.45 12.88
  Q 76.07 28.05 85.51 43.33
  Q 85.76 43.75 86.25 43.75
  Z
  M 53.56 10.94
  C 46.56 8.92 42.42 12.18 38.55 18.11
  Q 30.38 30.62 22.37 43.09
  Q 21.94 43.75 22.73 43.75
  L 77.01 43.75
  Q 77.85 43.75 77.40 43.04
  Q 70.08 31.49 62.59 19.85
  C 59.57 15.17 58.05 12.24 53.56 10.94
  Z"
/>
<path fill="#ffdc00" d="
  M 53.56 10.94
  C 58.05 12.24 59.57 15.17 62.59 19.85
  Q 70.08 31.49 77.40 43.04
  Q 77.85 43.75 77.01 43.75
  L 22.73 43.75
  Q 21.94 43.75 22.37 43.09
  Q 30.38 30.62 38.55 18.11
  C 42.42 12.18 46.56 8.92 53.56 10.94
  Z"
/>
<path fill="#000000" d="
  M 13.98 65.49
  Q 12.97 65.54 12.18 65.49
  A 1.75 1.75 0.0 0 1 12.29 62.00
  L 17.47 62.00
  A 1.78 1.77 -86.4 0 1 19.23 64.00
  C 18.67 68.56 14.96 71.66 10.41 71.47
  C -2.02 70.94 2.18 49.82 15.07 56.07
  Q 15.52 56.29 15.42 56.77
  C 15.09 58.53 13.97 58.87 12.27 58.62
  C 3.89 57.44 4.30 70.83 14.31 67.05
  A 0.81 0.81 0.0 0 0 13.98 65.49
  Z"
/>
<path fill="#000000" d="
  M 28.07 68.72
  L 27.97 70.78
  Q 27.93 71.50 27.21 71.50
  L 25.13 71.50
  Q 24.50 71.50 24.50 70.87
  L 24.50 56.76
  A 1.74 1.74 0.0 0 1 26.17 55.02
  C 28.28 54.93 30.82 54.73 32.72 55.65
  C 37.36 57.89 38.00 64.02 33.50 67.14
  Q 33.08 67.43 33.35 67.86
  L 35.30 70.96
  Q 35.65 71.50 35.01 71.50
  L 32.21 71.50
  Q 31.68 71.50 31.48 71.01
  Q 30.75 69.19 29.09 68.18
  A 0.67 0.67 0.0 0 0 28.07 68.72
  Z
  M 28.00 59.05
  L 28.00 64.15
  A 0.58 0.58 0.0 0 0 28.59 64.73
  L 29.67 64.73
  A 3.34 2.97 -0.1 0 0 33.00 61.76
  L 33.00 61.44
  A 3.34 2.97 -0.1 0 0 29.65 58.47
  L 28.57 58.47
  A 0.58 0.58 0.0 0 0 28.00 59.05
  Z"
/>
<path fill="#000000" d="
  M 45.42 58.13
  C 46.43 54.59 51.23 53.56 52.18 57.08
  Q 54.04 63.96 55.92 70.93
  Q 56.07 71.50 55.49 71.50
  L 53.13 71.50
  A 0.80 0.80 0.0 0 1 52.35 70.89
  L 51.82 68.82
  Q 51.68 68.25 51.09 68.25
  L 46.62 68.25
  Q 46.20 68.25 46.10 68.65
  L 45.51 70.83
  A 0.89 0.89 0.0 0 1 44.65 71.50
  L 42.48 71.50
  Q 41.78 71.50 41.96 70.82
  Q 43.63 64.44 45.42 58.13
  Z
  M 48.59 59.52
  L 47.31 64.09
  Q 47.13 64.75 47.82 64.75
  L 49.97 64.75
  A 0.57 0.57 0.0 0 0 50.52 64.03
  L 49.22 59.52
  A 0.33 0.33 0.0 0 0 48.59 59.52
  Z"
/>
<path fill="#000000" d="
  M 71.00 63.46
  L 71.00 55.79
  Q 71.00 55.02 71.77 55.02
  L 74.12 54.99
  Q 74.75 54.99 74.75 55.62
  L 74.75 69.88
  A 2.04 2.04 0.0 0 1 71.00 70.98
  L 65.70 62.78
  A 0.38 0.38 0.0 0 0 65.00 62.99
  L 65.00 70.83
  Q 65.00 71.47 64.36 71.48
  L 62.13 71.51
  Q 61.50 71.51 61.50 70.88
  L 61.50 56.45
  A 1.90 1.89 28.1 0 1 64.97 55.40
  L 70.48 63.62
  Q 71.00 64.40 71.00 63.46
  Z"
/>
<path fill="#000000" d="
  M 85.27 55.80
  C 86.99 54.68 90.04 54.40 90.80 56.88
  Q 92.92 63.69 94.80 70.80
  A 0.57 0.56 82.9 0 1 94.25 71.51
  L 91.87 71.48
  A 0.75 0.74 84.3 0 1 91.14 70.88
  L 90.73 68.81
  Q 90.62 68.25 90.05 68.25
  L 85.75 68.25
  Q 85.21 68.25 85.04 68.76
  L 84.29 70.97
  Q 84.11 71.50 83.55 71.50
  L 81.32 71.50
  Q 80.63 71.50 80.81 70.84
  L 84.72 56.56
  A 1.35 1.32 -9.8 0 1 85.27 55.80
  Z
  M 87.54 59.00
  L 86.24 64.04
  Q 86.06 64.75 86.79 64.75
  L 89.05 64.75
  Q 89.62 64.75 89.47 64.20
  L 88.02 59.00
  A 0.25 0.25 0.0 0 0 87.54 59.00
  Z"
/>
<path fill="#ffdc00" d="
  M 28.00 59.05
  A 0.58 0.58 0.0 0 1 28.57 58.47
  L 29.65 58.47
  A 3.34 2.97 -0.1 0 1 33.00 61.44
  L 33.00 61.76
  A 3.34 2.97 -0.1 0 1 29.67 64.73
  L 28.59 64.73
  A 0.58 0.58 0.0 0 1 28.00 64.15
  L 28.00 59.05
  Z"
/>
<path fill="#ffdc00" d="
  M 87.54 59.00
  A 0.25 0.25 0.0 0 1 88.02 59.00
  L 89.47 64.20
  Q 89.62 64.75 89.05 64.75
  L 86.79 64.75
  Q 86.06 64.75 86.24 64.04
  L 87.54 59.00
  Z"
/>
<path fill="#ffdc00" d="
  M 48.59 59.52
  A 0.33 0.33 0.0 0 1 49.22 59.52
  L 50.52 64.03
  A 0.57 0.57 0.0 0 1 49.97 64.75
  L 47.82 64.75
  Q 47.13 64.75 47.31 64.09
  L 48.59 59.52
  Z"
/>
<path fill="#000000" d="
  M 6.75 91.75
  L 6.75 94.08
  Q 6.75 94.72 6.11 94.73
  L 4.01 94.76
  Q 3.25 94.77 3.25 94.01
  L 3.25 79.46
  A 1.08 1.07 77.4 0 1 3.86 78.49
  C 8.31 76.39 14.75 79.27 14.88 84.51
  C 14.98 88.92 11.59 91.60 7.28 91.26
  Q 6.75 91.22 6.75 91.75
  Z
  M 6.75 82.36
  L 6.73 87.10
  A 0.64 0.64 0.0 0 0 7.37 87.74
  L 8.05 87.75
  A 3.38 2.89 0.2 0 0 11.44 84.87
  L 11.44 84.63
  A 3.38 2.89 0.2 0 0 8.07 81.73
  L 7.39 81.72
  A 0.64 0.64 0.0 0 0 6.75 82.36
  Z"
/>
<path fill="#000000" d="
  M 19.64 91.95
  L 19.13 93.92
  A 0.90 0.89 -85.3 0 1 18.35 94.59
  L 16.11 94.80
  A 0.53 0.53 0.0 0 1 15.54 94.14
  Q 17.06 88.06 18.80 82.10
  C 19.39 80.07 19.81 78.27 22.24 78.00
  Q 25.21 77.67 26.02 80.74
  Q 27.74 87.25 29.48 93.86
  Q 29.65 94.54 28.97 94.69
  Q 25.60 95.41 25.58 92.06
  A 0.56 0.56 0.0 0 0 25.02 91.50
  L 20.22 91.50
  Q 19.75 91.50 19.64 91.95
  Z
  M 20.95 87.36
  A 0.33 0.33 0.0 0 0 21.27 87.77
  L 23.88 87.73
  A 0.33 0.33 0.0 0 0 24.19 87.32
  L 22.83 82.39
  A 0.33 0.33 0.0 0 0 22.19 82.40
  L 20.95 87.36
  Z"
/>
<path fill="#000000" d="
  M 32.51 79.43
  A 1.40 1.40 0.0 0 1 33.91 78.03
  L 36.03 78.03
  A 8.72 8.17 0.0 0 1 44.75 86.20
  L 44.75 86.56
  A 8.72 8.17 -0.0 0 1 36.03 94.73
  L 33.91 94.73
  A 1.40 1.40 0.0 0 1 32.51 93.33
  L 32.51 79.43
  Z
  M 36.01 82.09
  L 35.99 90.61
  A 0.42 0.42 0.0 0 0 36.40 91.03
  L 36.53 91.03
  A 4.67 4.61 0.2 0 0 41.22 86.44
  L 41.22 86.30
  A 4.67 4.61 0.2 0 0 36.57 81.67
  L 36.44 81.67
  A 0.42 0.42 0.0 0 0 36.01 82.09
  Z"
/>
<path fill="#000000" d="
  M 50.32 92.08
  L 50.07 93.88
  Q 49.98 94.52 49.34 94.58
  L 46.83 94.81
  Q 46.17 94.87 46.34 94.24
  L 50.19 80.05
  A 2.38 2.37 -3.4 0 1 51.60 78.47
  C 54.50 77.30 56.26 78.66 57.04 81.53
  Q 58.74 87.85 60.42 94.14
  Q 60.61 94.84 59.88 94.79
  L 57.63 94.64
  Q 56.92 94.59 56.77 93.89
  L 56.37 91.97
  Q 56.27 91.50 55.79 91.50
  L 50.99 91.50
  A 0.69 0.68 -85.5 0 0 50.32 92.08
  Z
  M 51.77 87.31
  A 0.32 0.32 0.0 0 0 52.07 87.72
  L 54.61 87.78
  A 0.32 0.32 0.0 0 0 54.93 87.39
  L 53.77 82.40
  A 0.32 0.32 0.0 0 0 53.15 82.38
  L 51.77 87.31
  Z"
/>
<path fill="#000000" d="
  M 66.75 86.24
  L 66.75 93.73
  Q 66.75 94.38 66.11 94.48
  L 63.97 94.82
  Q 63.25 94.93 63.25 94.20
  L 63.25 78.72
  Q 63.25 78.11 63.86 78.03
  C 67.45 77.57 70.48 84.35 72.16 86.91
  A 0.32 0.32 0.0 0 0 72.75 86.74
  L 72.75 78.82
  Q 72.75 78.16 73.42 78.11
  L 75.71 77.95
  Q 76.25 77.92 76.25 78.46
  L 76.25 94.05
  Q 76.25 94.71 75.59 94.70
  C 71.39 94.64 69.57 89.01 67.30 86.06
  Q 66.75 85.33 66.75 86.24
  Z"
/>
<path fill="#000000" d="
  M 96.05 86.36
  A 8.22 8.22 0.0 0 1 87.83 94.58
  A 8.22 8.22 0.0 0 1 79.61 86.36
  A 8.22 8.22 0.0 0 1 87.83 78.14
  A 8.22 8.22 0.0 0 1 96.05 86.36
  Z
  M 92.48 86.36
  A 4.65 4.65 0.0 0 0 87.83 81.71
  A 4.65 4.65 0.0 0 0 83.18 86.36
  A 4.65 4.65 0.0 0 0 87.83 91.01
  A 4.65 4.65 0.0 0 0 92.48 86.36
  Z"
/>
<path fill="#ffdc00" d="
  M 36.01 82.09
  A 0.42 0.42 0.0 0 1 36.44 81.67
  L 36.57 81.67
  A 4.67 4.61 0.2 0 1 41.22 86.30
  L 41.22 86.44
  A 4.67 4.61 0.2 0 1 36.53 91.03
  L 36.40 91.03
  A 0.42 0.42 0.0 0 1 35.99 90.61
  L 36.01 82.09
  Z"
/>
<path fill="#ffdc00" d="
  M 6.75 82.36
  A 0.64 0.64 0.0 0 1 7.39 81.72
  L 8.07 81.73
  A 3.38 2.89 0.2 0 1 11.44 84.63
  L 11.44 84.87
  A 3.38 2.89 0.2 0 1 8.05 87.75
  L 7.37 87.74
  A 0.64 0.64 0.0 0 1 6.73 87.10
  L 6.75 82.36
  Z"
/>
<circle fill="#ffdc00" cx="87.83" cy="86.36" r="4.65"/>
<path fill="#ffdc00" d="
  M 20.95 87.36
  L 22.19 82.40
  A 0.33 0.33 0.0 0 1 22.83 82.39
  L 24.19 87.32
  A 0.33 0.33 0.0 0 1 23.88 87.73
  L 21.27 87.77
  A 0.33 0.33 0.0 0 1 20.95 87.36
  Z"
/>
<path fill="#ffdc00" d="
  M 51.77 87.31
  L 53.15 82.38
  A 0.32 0.32 0.0 0 1 53.77 82.40
  L 54.93 87.39
  A 0.32 0.32 0.0 0 1 54.61 87.78
  L 52.07 87.72
  A 0.32 0.32 0.0 0 1 51.77 87.31
  Z"
/>
<path fill="#000000" d="
  M 60.42 142.34
  C 51.92 149.14 38.49 146.61 32.68 137.31
  Q 22.95 121.76 13.24 106.16
  Q 12.98 105.75 12.49 105.75
  L 4.17 105.75
  A 0.91 0.90 -0.3 0 1 3.26 104.86
  L 3.24 101.51
  Q 3.24 101.00 3.75 101.00
  L 95.00 101.00
  Q 95.50 101.00 95.50 101.50
  L 95.50 104.50
  A 1.25 1.25 0.0 0 1 94.25 105.75
  L 85.48 105.75
  A 0.95 0.95 0.0 0 0 84.67 106.20
  Q 76.12 119.76 67.54 133.28
  Q 63.19 140.13 60.42 142.34
  Z
  M 39.92 135.12
  C 43.14 140.00 51.11 139.97 54.78 137.63
  Q 57.52 135.88 62.27 128.48
  Q 69.42 117.35 76.59 106.36
  A 0.40 0.39 -73.6 0 0 76.26 105.75
  L 21.75 105.75
  A 0.46 0.45 -15.8 0 0 21.36 106.44
  Q 30.47 120.77 39.92 135.12
  Z"
/>
<path fill="#ffdc00" d="
  M 54.78 137.63
  C 51.11 139.97 43.14 140.00 39.92 135.12
  Q 30.47 120.77 21.36 106.44
  A 0.46 0.45 -15.8 0 1 21.75 105.75
  L 76.26 105.75
  A 0.40 0.39 -73.6 0 1 76.59 106.36
  Q 69.42 117.35 62.27 128.48
  Q 57.52 135.88 54.78 137.63
  Z"
/>
</svg>
