<?xml version="1.0" encoding="utf-8"?>
<!-- Generator: Adobe Illustrator 19.2.1, SVG Export Plug-In . SVG Version: 6.00 Build 0)  -->
<svg version="1.1" id="layer" xmlns="http://www.w3.org/2000/svg" xmlns:xlink="http://www.w3.org/1999/xlink" x="0px" y="0px"
	 viewBox="0 0 652 652" style="enable-background:new 0 0 652 652;" xml:space="preserve">
<style type="text/css">
	.st0{fill:#103578;}
	.st1{fill:#009FE3;}
	.st2{fill:#FAB31E;}
</style>
<g>
	<path class="st0" d="M25.6,190.7c0,0-1.6,71.8,6.9,131.9c10.2,71.8,46.7,128.7,136.8,128.7h301.5c90.1,0,126.6-56.9,136.8-128.7
		c8.5-60.1,6.9-131.9,6.9-131.9H25.6z"/>
	<path class="st1" d="M470.8,456.7H169.3c-43.7,0-78.1-13.2-102.3-39.1c-20.7-22.2-34.1-53.9-39.8-94.2c-8.5-59.8-7-132.1-7-132.8
		l0.1-5.3h599.5l0.1,5.3c0,0.7,1.5,73-6.9,132.8c-5.7,40.4-19.1,72.1-39.8,94.2C548.9,443.6,514.4,456.7,470.8,456.7 M31,196.2
		c-0.2,17.7-0.1,76.1,6.9,125.7c11.7,82.3,55.9,124,131.3,124h301.5c75.5,0,119.7-41.7,131.4-124c7-49.6,7.1-108,6.9-125.7H31z"/>
	<path class="st2" d="M300.2,225.7c-7.9,0-14.4,6.4-14.4,14.3v95.6c0,7.9,6.4,14.5,14.4,14.5h-0.6h42.3c7.9,0,14.3-6.6,14.3-14.5
		V240c0-7.9-6.4-14.3-14.3-14.3H300.2z"/>
	<path class="st2" d="M149.7,283.6c-2.1,0-3.9-1.7-3.9-3.9l0-25c0-2.1,1.7-3.9,3.8-3.9l23.9,0c9.1,0,16.4,7.3,16.4,16.4
		c0,9.1-7.3,16.4-16.4,16.4L149.7,283.6z M89.8,225.7c-7.9,0-14.3,6.4-14.3,14.3v95.6c0,7.9,6.4,14.5,14.3,14.5H131
		c7.9,0,14.3-6.6,14.3-14.5v-33.7l37.3,41.4c3.9,4,9.5,6.8,15.6,6.8l53.5,0c5.7,0,10.2-4.6,10.2-10.2c0-2.6-1.2-4.8-2.8-6.6
		l-30.7-31.8c19.6-1.4,34.7-17.3,34.7-37.8c0-22.4-15.1-37.9-36.9-37.9L89.8,225.7z"/>
	<path class="st2" d="M271.5,413.5c0,1.2-1,2.2-2.2,2.2h-22.9c-1.2,0-2.2-1-2.2-2.2l0-27.4c0-3.1-2.5-5.6-5.6-5.6
		c-3.1,0-5.6,2.5-5.6,5.6l0,27.4c0,1.2-1.1,2.2-2.3,2.2h-23.8c-1.2,0-2.2-1-2.2-2.2l0-27.4c0-3.1-2.5-5.6-5.6-5.6
		c-3.1,0-5.6,2.5-5.6,5.6v27.4c0,1.2-1,2.2-2.2,2.2H168c-1.2,0-2.1-0.8-2.1-2v-35.2c0-1.4,0.5-1.9,1.1-2.3
		c9.4-6.2,22.6-8.4,31.7-8.4c8.5,0,16,3,21.3,7.8c0,0,12.7-7.4,26-7.4c14.9,0,25.4,6.6,25.4,14.8L271.5,413.5z"/>
	<path class="st2" d="M408.5,381.8c0,1.3-1.1,2.4-2.3,2.4l-6.9,0c-6.4,0-11.5,5.8-11.5,12.9v16.2c0,1.3-1,2.3-2.3,2.3l-22.8,0
		c-1.2,0-2.2-1.1-2.2-2.3v-40.8c0-1.3,1-2.3,2.2-2.3H385c2.5,0,1.7,2.6,3.9,2.2c1.2-0.2,1.8-4.5,8.5-4.5l8.8,0c1.2,0,2.3,1,2.3,2.3
		L408.5,381.8z"/>
	<path class="st2" d="M346.2,415.9h-18.6c-2.5,0-1.3-2.7-4.2-2.4c-2.3,0.2-3.4,3.6-20,3.6c-12.6,0-22.8-10.2-22.8-22.8
		c0-18,18.9-26.6,36.3-26.6c14.8,0,26.4,4.6,30.1,6.4c0.9,0.4,1.3,1.3,1.3,2.3l0,37.3C348.4,414.9,347.4,415.9,346.2,415.9
		 M317.6,404.2c3.9,0,7.1-5.2,7.1-11.7c0-6.4-3.2-11.7-7.1-11.7c-3.9,0-7.1,5.2-7.1,11.7C310.5,398.9,313.7,404.2,317.6,404.2"/>
	<path class="st2" d="M442.6,396.2c-1.5,0-2.7,1.3-2.7,2.8c0,4.3,2.7,7.4,7,7.4c4.6,0,5.3-2.6,6.1-3.8c0.5-0.7,1.1-1.2,2-1.2l20.1,0
		c1.3,0,3,1.2,2.1,2.9c-2.3,4.4-7.4,12.8-33.1,12.8c-34.9,0-33.2-24-33.2-24c0-17.6,14.3-25.4,34.1-25.4c23.4,0,34.4,11.4,34.4,25.4
		c0,1.6-0.8,3.1-2.5,3.1L442.6,396.2z M452.5,384.7c0-3.4-2.6-6.1-5.9-6.1c-3.2,0-5.8,2.7-5.8,6.1c0,0,0,0.7,0,1.1h11.7
		C452.5,385.4,452.5,384.7,452.5,384.7"/>
	<path class="st2" d="M569.7,288.4c0,39.8-19.7,55.6-43.6,61.1c-18.8,4.3-36.7,4.5-52,4.5c-15.4,0-32-0.1-50.9-4.5
		c-23.9-5.5-43.6-21.2-43.6-61c0-39.8,19.7-55.7,43.6-61.2c18.8-4.3,35.5-4.5,50.9-4.5c15.4,0,33.2,0.1,52,4.5
		C549.9,232.8,569.7,248.6,569.7,288.4 M498.4,269.1c0-12-10.9-21.7-24.2-21.7c-13.4,0-24.2,9.7-24.2,21.7l0,38.8
		c0,12,10.8,21.7,24.2,21.7c13.4,0,24.3-9.7,24.3-21.7L498.4,269.1z"/>
</g>
</svg>
