<?xml version="1.0" encoding="UTF-8" standalone="no"?>
<!DOCTYPE svg PUBLIC "-//W3C//DTD SVG 1.1//EN" "http://www.w3.org/Graphics/SVG/1.1/DTD/svg11.dtd">
<svg xmlns="http://www.w3.org/2000/svg" version="1.1" viewBox="0.00 0.00 600.00 184.00">
<g stroke-width="2.00" fill="none" stroke-linecap="butt">
<path stroke="#755f27" vector-effect="non-scaling-stroke" d="
  M 231.52 153.59
  Q 220.46 164.28 207.68 172.92"
/>
<path stroke="#755f27" vector-effect="non-scaling-stroke" d="
  M 106.40 152.84
  L 97.38 136.71"
/>
<path stroke="#80b1a0" vector-effect="non-scaling-stroke" d="
  M 509.00 142.92
  Q 508.33 142.90 508.60 143.83
  C 509.46 146.76 508.75 153.40 508.71 156.70"
/>
<path stroke="#f18389" vector-effect="non-scaling-stroke" d="
  M 552.95 143.34
  L 552.95 156.94"
/>
</g>
<path fill="#ea5b0d" d="
  M 183.29 0.00
  L 188.31 0.00
  C 213.60 2.13 225.56 20.81 232.50 43.02
  Q 232.67 43.56 233.19 43.32
  C 248.69 35.94 274.91 30.53 279.11 55.10
  C 280.69 64.37 277.74 76.04 274.33 84.90
  C 264.69 109.95 249.81 133.91 231.52 153.59
  Q 220.46 164.28 207.68 172.92
  Q 195.71 180.20 182.18 184.00
  L 179.95 184.00
  C 175.42 182.53 172.40 177.73 175.53 173.46
  C 180.08 167.24 193.82 165.58 201.11 160.94
  C 229.39 142.93 249.38 110.59 261.57 79.83
  C 264.13 73.39 268.34 59.08 264.08 53.36
  C 258.20 45.43 238.15 55.93 231.56 59.40
  C 224.80 62.96 221.86 58.17 220.66 52.05
  C 217.43 35.57 207.92 15.88 188.95 13.82
  C 170.55 11.83 153.71 27.05 143.85 40.76
  C 139.95 46.18 135.26 47.36 130.77 41.59
  C 126.01 35.45 113.74 19.90 104.32 24.74
  C 99.75 27.08 96.36 34.37 94.99 39.50
  C 86.08 73.07 99.53 114.56 116.46 143.46
  Q 116.72 143.90 117.18 144.10
  C 127.48 148.62 139.95 157.23 141.00 169.59
  C 141.46 175.05 137.22 179.53 131.74 178.06
  C 123.91 175.96 111.23 159.60 106.40 152.84
  L 97.38 136.71
  C 82.81 106.71 73.73 69.34 81.69 36.51
  C 84.57 24.66 92.72 11.53 106.14 10.34
  C 118.88 9.21 128.49 18.32 136.55 27.04
  Q 136.93 27.46 137.29 27.02
  C 149.17 12.67 164.34 1.84 183.29 0.00
  Z"
/>
<rect fill="#ea5b0d" x="-14.65" y="-13.39" transform="translate(522.04,46.69) rotate(-0.2)" width="29.30" height="26.78" rx="12.25"/>
<path fill="#006241" d="
  M 316.18 58.06
  L 291.45 59.36
  Q 290.75 59.40 290.75 58.70
  L 290.75 34.37
  Q 290.75 33.75 291.37 33.75
  L 368.00 33.75
  A 0.50 0.50 0.0 0 1 368.50 34.25
  L 368.50 58.68
  Q 368.50 59.36 367.82 59.33
  L 343.33 58.05
  Q 342.61 58.02 342.56 58.73
  Q 339.72 96.74 342.88 134.73
  Q 342.92 135.22 342.42 135.23
  L 317.04 135.46
  Q 316.37 135.47 316.42 134.79
  Q 319.49 96.70 316.77 58.58
  A 0.56 0.56 0.0 0 0 316.18 58.06
  Z"
/>
<path fill="#006241" d="
  M 475.85 131.04
  C 471.52 133.39 466.99 135.70 462.41 136.64
  C 412.05 146.94 413.97 45.20 477.11 62.98
  Q 477.73 63.15 477.70 62.50
  L 476.13 34.19
  Q 476.11 33.75 476.55 33.75
  L 501.98 33.75
  Q 502.49 33.75 502.45 34.26
  C 500.01 67.56 499.38 101.38 502.52 134.66
  A 0.77 0.76 87.3 0 1 501.76 135.50
  L 476.56 135.50
  A 0.62 0.61 4.4 0 1 475.95 134.80
  L 476.47 131.47
  A 0.42 0.42 0.0 0 0 475.85 131.04
  Z
  M 454.44 87.19
  C 448.75 95.63 448.37 111.92 459.73 116.31
  C 467.34 119.25 475.26 114.81 477.22 106.99
  C 479.23 98.98 478.41 89.81 478.20 81.33
  Q 478.19 80.79 477.66 80.68
  C 470.12 79.21 459.15 80.20 454.44 87.19
  Z"
/>
<path fill="#006241" d="
  M 350.54 84.03
  C 359.98 56.96 399.32 52.76 415.79 75.12
  C 424.07 86.37 425.13 102.81 419.92 115.69
  C 412.87 133.14 392.81 140.70 374.76 135.99
  C 351.76 129.99 343.18 105.09 350.54 84.03
  Z
  M 373.94 85.94
  C 366.24 98.18 370.03 120.87 389.54 117.52
  C 403.64 115.09 404.25 88.62 393.21 82.13
  C 387.25 78.63 377.79 79.82 373.94 85.94
  Z"
/>
<path fill="#006241" d="
  M 541.48 78.53
  C 544.49 60.65 574.72 62.27 586.84 64.88
  Q 587.38 64.99 587.46 65.54
  L 590.02 83.75
  Q 590.12 84.46 589.45 84.21
  C 585.95 82.87 565.17 76.38 568.52 86.44
  C 569.52 89.44 580.28 94.66 583.27 96.45
  Q 596.24 104.24 592.47 119.36
  C 587.54 139.06 558.40 137.55 543.71 134.71
  Q 543.14 134.60 543.07 134.02
  L 540.56 114.25
  A 0.53 0.52 6.2 0 1 541.26 113.69
  C 547.02 115.78 558.94 118.92 564.48 116.55
  C 569.69 114.32 566.47 110.36 563.32 108.65
  C 550.60 101.76 538.52 96.14 541.48 78.53
  Z"
/>
<path fill="#006241" d="
  M 508.72 134.77
  C 510.59 111.38 510.77 88.67 508.71 65.14
  A 0.56 0.55 87.6 0 1 509.26 64.53
  L 534.44 64.48
  Q 535.31 64.48 535.23 65.35
  Q 531.85 100.22 535.26 135.08
  A 0.39 0.39 0.0 0 1 534.87 135.51
  L 509.31 135.42
  A 0.60 0.60 0.0 0 1 508.72 134.77
  Z"
/>
<path fill="#006241" d="
  M 97.38 136.71
  L 106.40 152.84
  Q 79.48 146.73 51.55 146.08
  Q 37.16 145.75 22.75 145.59
  C 16.32 145.51 2.38 144.87 0.00 139.44
  L 0.00 137.95
  C 2.96 132.27 14.16 132.44 20.81 132.16
  Q 59.13 130.53 97.38 136.71
  Z"
/>
<path fill="#006241" d="
  M 509.00 142.92
  Q 508.33 142.90 508.60 143.83
  C 509.46 146.76 508.75 153.40 508.71 156.70
  Q 493.88 156.58 478.94 156.38
  C 404.95 155.41 330.59 158.09 257.00 166.03
  Q 232.31 168.70 207.68 172.92
  Q 220.46 164.28 231.52 153.59
  Q 252.83 150.83 265.06 149.82
  C 346.15 143.14 427.66 141.09 509.00 142.92
  Z"
/>
<path fill="#ffffff" d="
  M 509.00 142.92
  L 552.95 143.34
  L 552.95 156.94
  L 508.71 156.70
  C 508.75 153.40 509.46 146.76 508.60 143.83
  Q 508.33 142.90 509.00 142.92
  Z"
/>
<path fill="#e30613" d="
  M 552.95 156.94
  L 552.95 143.34
  Q 577.61 143.32 585.49 144.22
  C 589.03 144.63 600.94 147.56 595.61 153.08
  C 590.59 158.30 560.54 157.22 552.95 156.94
  Z"
/>
<path fill="#006241" d="
  M 350.72 184.00
  L 348.23 184.00
  C 336.70 181.20 343.58 165.55 353.10 170.86
  C 359.11 174.21 357.18 182.00 350.72 184.00
  Z
  M 349.4567 181.0396
  A 4.06 3.69 89.2 0 0 353.0896 176.9285
  A 4.06 3.69 89.2 0 0 349.3433 172.9204
  A 4.06 3.69 89.2 0 0 345.7104 177.0315
  A 4.06 3.69 89.2 0 0 349.4567 181.0396
  Z"
/>
<path fill="#006241" d="
  M 381.66 184.00
  L 379.17 184.00
  C 367.22 180.53 374.15 165.59 384.72 171.19
  A 0.63 0.63 0.0 0 1 384.93 172.13
  L 383.80 173.59
  A 0.66 0.65 33.5 0 1 382.94 173.76
  C 375.35 169.24 374.03 182.88 381.54 181.00
  A 1.53 1.10 -48.3 0 0 381.81 178.35
  L 380.93 178.52
  Q 380.36 178.63 380.05 178.14
  Q 379.41 177.15 380.06 176.14
  Q 380.31 175.75 380.78 175.75
  L 384.84 175.75
  A 0.65 0.65 0.0 0 1 385.49 176.40
  L 385.50 182.27
  Q 385.51 182.88 384.92 183.05
  L 381.66 184.00
  Z"
/>
<path fill="#006241" d="
  M 401.95 184.00
  L 399.19 184.00
  Q 392.92 182.09 393.48 176.34
  C 394.28 168.11 406.15 167.80 407.56 175.44
  Q 408.76 181.91 401.95 184.00
  Z
  M 400.6567 181.0296
  A 4.06 3.72 89.2 0 0 404.3196 176.9181
  A 4.06 3.72 89.2 0 0 400.5433 172.9104
  A 4.06 3.72 89.2 0 0 396.8804 177.0219
  A 4.06 3.72 89.2 0 0 400.6567 181.0296
  Z"
/>
<path fill="#006241" d="
  M 444.96 184.00
  L 442.50 184.00
  C 434.55 182.16 434.66 171.74 442.24 170.03
  C 451.19 168.02 455.20 181.07 444.96 184.00
  Z
  M 443.9025 180.9884
  A 4.03 3.73 88.4 0 0 447.5185 176.8559
  A 4.03 3.73 88.4 0 0 443.6775 172.9316
  A 4.03 3.73 88.4 0 0 440.0615 177.0641
  A 4.03 3.73 88.4 0 0 443.9025 180.9884
  Z"
/>
<path fill="#006241" d="
  M 465.65 184.00
  L 463.18 184.00
  C 452.34 181.12 457.33 166.06 468.48 171.02
  A 0.94 0.94 0.0 0 1 468.95 172.27
  Q 467.94 174.45 465.91 173.22
  Q 465.44 172.94 464.89 172.94
  C 457.39 173.00 461.39 184.63 466.88 180.02
  Q 467.30 179.67 467.68 180.06
  L 469.07 181.45
  A 0.57 0.56 -41.8 0 1 469.02 182.30
  Q 467.52 183.48 465.65 184.00
  Z"
/>
<path fill="#006241" d="
  M 478.44 184.00
  L 475.98 184.00
  Q 470.97 182.93 470.26 179.02
  C 468.06 166.92 485.99 167.19 484.31 178.22
  Q 483.63 182.68 478.44 184.00
  Z
  M 477.3033 180.9895
  A 4.03 3.75 89.1 0 0 480.9895 176.9011
  A 4.03 3.75 89.1 0 0 477.1767 172.9305
  A 4.03 3.75 89.1 0 0 473.4905 177.0189
  A 4.03 3.75 89.1 0 0 477.3033 180.9895
  Z"
/>
<path fill="#006241" d="
  M 325.21 177.14
  C 327.14 177.80 327.23 180.39 326.35 181.73
  C 324.76 184.15 319.57 183.97 317.08 183.66
  Q 316.50 183.59 316.50 183.01
  L 316.50 170.97
  Q 316.50 170.38 317.09 170.32
  Q 319.76 170.05 322.39 170.34
  C 325.95 170.74 327.75 173.40 325.03 176.42
  Q 324.57 176.93 325.21 177.14
  Z
  M 319.60 173.45
  L 319.60 175.13
  A 0.50 0.50 0.0 0 0 320.10 175.63
  L 320.89 175.63
  A 2.33 1.23 0.0 0 0 323.22 174.40
  L 323.22 174.18
  A 2.33 1.23 0.0 0 0 320.89 172.95
  L 320.10 172.95
  A 0.50 0.50 0.0 0 0 319.60 173.45
  Z
  M 319.55 178.55
  L 319.55 180.43
  A 0.54 0.54 0.0 0 0 320.09 180.97
  L 321.52 180.97
  A 1.99 1.17 -0.1 0 0 323.51 179.80
  L 323.51 179.18
  A 1.99 1.17 -0.1 0 0 321.52 178.01
  L 320.09 178.01
  A 0.54 0.54 0.0 0 0 319.55 178.55
  Z"
/>
<path fill="#006241" d="
  M 335.62 184.00
  L 333.44 184.00
  C 327.30 182.71 328.67 175.36 328.76 170.78
  A 0.54 0.54 0.0 0 1 329.30 170.25
  L 331.47 170.25
  Q 332.10 170.25 332.07 170.88
  C 331.94 173.54 330.70 181.85 335.21 180.90
  A 2.26 2.25 -6.0 0 0 337.00 178.70
  L 337.00 170.88
  Q 337.00 170.25 337.62 170.25
  L 339.55 170.25
  Q 340.24 170.25 340.24 170.94
  C 340.27 175.66 341.89 182.56 335.62 184.00
  Z"
/>
<path fill="#006241" d="
  M 362.51 176.01
  A 0.38 0.38 0.0 0 0 361.81 176.22
  L 362.07 182.95
  A 0.77 0.77 0.0 0 1 361.30 183.75
  L 359.50 183.75
  Q 358.75 183.75 358.75 183.00
  L 358.75 170.86
  Q 358.75 170.21 359.40 170.23
  L 361.85 170.30
  Q 362.47 170.32 362.80 170.86
  L 367.15 178.01
  A 0.40 0.40 0.0 0 0 367.89 177.80
  L 367.70 170.90
  Q 367.68 170.23 368.35 170.24
  L 370.23 170.27
  Q 371.00 170.28 371.00 171.05
  L 371.00 182.07
  A 2.21 2.21 0.0 0 1 366.91 183.22
  L 362.51 176.01
  Z"
/>
<rect fill="#006241" x="388.00" y="170.25" width="3.26" height="13.50" rx="0.60"/>
<path fill="#006241" d="
  M 413.01 178.94
  L 412.99 182.43
  Q 412.98 184.23 411.22 183.85
  Q 409.49 183.48 409.66 181.92
  C 410.06 178.44 409.87 174.53 409.87 171.00
  Q 409.87 170.39 410.47 170.32
  Q 414.45 169.86 418.28 170.95
  A 1.44 1.40 80.1 0 1 419.05 171.51
  Q 421.69 175.44 417.83 177.79
  Q 417.38 178.07 417.65 178.52
  L 420.43 183.03
  Q 420.87 183.75 420.03 183.75
  L 417.70 183.75
  A 1.09 1.09 0.0 0 1 416.74 183.18
  L 414.27 178.63
  A 0.67 0.67 0.0 0 0 413.01 178.94
  Z
  M 413.01 173.62
  L 413.01 175.32
  A 0.65 0.65 0.0 0 0 413.66 175.97
  L 414.91 175.97
  A 1.84 1.24 -0.1 0 0 416.75 174.73
  L 416.75 174.21
  A 1.84 1.24 -0.1 0 0 414.91 172.97
  L 413.66 172.97
  A 0.65 0.65 0.0 0 0 413.01 173.62
  Z"
/>
<path fill="#006241" d="
  M 425.96 175.80
  A 0.33 0.32 -61.5 0 0 425.36 175.98
  L 425.56 182.99
  Q 425.58 183.82 424.75 183.78
  L 422.79 183.68
  Q 422.25 183.65 422.25 183.11
  L 422.25 171.92
  A 2.21 2.21 0.0 0 1 426.35 170.78
  L 430.70 178.00
  A 0.38 0.38 0.0 0 0 431.41 177.79
  L 431.19 170.91
  Q 431.17 170.23 431.85 170.24
  L 433.86 170.27
  Q 434.50 170.28 434.50 170.92
  L 434.50 183.12
  Q 434.50 183.68 433.95 183.69
  L 431.35 183.77
  Q 430.82 183.79 430.54 183.34
  L 425.96 175.80
  Z"
/>
<path fill="#006241" d="
  M 489.62 175.78
  L 489.80 183.10
  Q 489.82 183.77 489.15 183.76
  L 487.26 183.73
  Q 486.50 183.72 486.50 182.95
  L 486.50 172.09
  A 2.25 2.25 0.0 0 1 490.67 170.93
  L 494.94 177.98
  A 0.38 0.37 28.8 0 0 495.64 177.78
  L 495.44 171.03
  Q 495.42 170.23 496.22 170.24
  L 498.11 170.27
  A 0.65 0.65 0.0 0 1 498.75 170.92
  L 498.75 183.00
  Q 498.75 183.75 498.00 183.75
  L 495.64 183.75
  Q 495.01 183.75 494.69 183.22
  L 490.11 175.63
  A 0.27 0.26 -61.5 0 0 489.62 175.78
  Z"
/>
<path fill="#006241" d="
  M 506.20 179.04
  A 0.31 0.30 -45.5 0 0 506.78 179.03
  L 509.29 170.90
  Q 509.49 170.25 510.17 170.25
  L 512.17 170.25
  A 0.70 0.70 0.0 0 1 512.82 171.20
  L 508.42 182.67
  A 2.16 2.16 0.0 0 1 504.38 182.67
  L 499.92 170.93
  A 0.52 0.52 0.0 0 1 500.43 170.23
  L 502.75 170.35
  Q 503.43 170.38 503.63 171.02
  L 506.20 179.04
  Z"
/>
<path fill="#006241" d="
  M 517.82 180.84
  L 522.93 180.71
  A 0.56 0.56 0.0 0 1 523.50 181.27
  L 523.50 183.18
  A 0.56 0.56 0.0 0 1 522.94 183.74
  L 514.58 183.75
  A 0.56 0.56 0.0 0 1 514.02 183.19
  L 514.00 170.81
  A 0.56 0.56 0.0 0 1 514.56 170.25
  L 522.52 170.25
  A 0.56 0.56 0.0 0 1 523.07 170.76
  L 523.21 172.39
  A 0.56 0.56 0.0 0 1 522.65 172.99
  L 517.81 173.01
  A 0.56 0.56 0.0 0 0 517.25 173.57
  L 517.25 174.94
  A 0.56 0.56 0.0 0 0 517.81 175.50
  L 522.19 175.50
  A 0.56 0.56 0.0 0 1 522.75 176.06
  L 522.75 177.69
  A 0.56 0.56 0.0 0 1 522.19 178.25
  L 517.81 178.25
  A 0.56 0.56 0.0 0 0 517.25 178.81
  L 517.25 180.28
  A 0.56 0.56 0.0 0 0 517.82 180.84
  Z"
/>
<path fill="#006241" d="
  M 528.57 175.95
  L 528.81 183.09
  Q 528.84 183.77 528.16 183.76
  L 526.14 183.73
  A 0.65 0.65 0.0 0 1 525.50 183.08
  L 525.50 171.00
  A 0.69 0.68 -7.1 0 1 526.02 170.34
  C 527.95 169.86 529.19 170.01 530.25 171.84
  Q 532.07 175.00 533.90 177.94
  A 0.40 0.39 -61.7 0 0 534.63 177.72
  L 534.44 170.96
  Q 534.43 170.28 535.10 170.27
  L 536.99 170.24
  Q 537.75 170.23 537.75 170.99
  L 537.75 183.12
  A 0.63 0.62 -90.0 0 1 537.13 183.75
  L 534.61 183.75
  Q 534.00 183.75 533.69 183.23
  L 529.16 175.77
  A 0.32 0.32 0.0 0 0 528.57 175.95
  Z"
/>
<rect fill="#006241" x="-1.74" y="-6.74" transform="translate(541.99,177.00) rotate(0.4)" width="3.48" height="13.48" rx="0.93"/>
<path fill="#006241" d="
  M 549.89 180.81
  Q 551.97 180.98 553.00 180.75
  Q 555.60 180.18 555.80 182.07
  A 1.52 1.52 0.0 0 1 554.29 183.75
  L 546.88 183.75
  A 0.63 0.63 0.0 0 1 546.25 183.12
  L 546.25 170.75
  Q 546.25 170.25 546.75 170.25
  L 554.50 170.25
  Q 555.25 170.25 555.25 171.00
  L 555.25 172.50
  Q 555.25 172.99 554.75 172.99
  L 550.01 173.01
  A 0.81 0.81 0.0 0 0 549.24 174.06
  L 549.52 174.98
  Q 549.69 175.50 550.24 175.50
  L 554.38 175.50
  Q 555.00 175.50 555.00 176.13
  L 555.00 177.62
  Q 555.00 178.25 554.37 178.25
  L 550.33 178.25
  Q 549.64 178.25 549.55 178.93
  L 549.38 180.17
  A 0.57 0.56 -83.7 0 0 549.89 180.81
  Z"
/>
<path fill="#006241" d="
  M 566.17 178.17
  A 0.37 0.37 0.0 0 0 566.85 177.97
  L 566.71 170.90
  Q 566.70 170.25 567.35 170.25
  L 569.13 170.25
  Q 569.75 170.25 569.75 170.88
  L 569.75 182.05
  A 2.14 2.13 29.6 0 1 565.78 183.14
  L 561.41 175.81
  A 0.38 0.38 0.0 0 0 560.70 176.02
  L 560.86 183.15
  Q 560.88 183.72 560.30 183.73
  L 558.38 183.76
  Q 557.75 183.77 557.75 183.13
  L 557.75 171.00
  Q 557.75 170.53 558.20 170.38
  C 562.24 169.03 564.48 175.43 566.17 178.17
  Z"
/>
<path fill="#006241" d="
  M 577.29 173.00
  L 572.50 173.00
  Q 572.00 173.00 572.00 172.50
  L 572.00 171.00
  Q 572.00 170.25 572.75 170.25
  L 581.05 170.25
  A 1.60 1.60 0.0 0 1 582.30 172.86
  L 576.41 180.14
  A 0.42 0.42 0.0 0 0 576.74 180.82
  L 581.83 180.72
  Q 582.37 180.71 582.34 181.25
  L 582.24 183.09
  A 0.70 0.69 1.7 0 1 581.54 183.74
  L 573.54 183.75
  A 1.95 1.94 19.4 0 1 572.02 180.58
  L 577.62 173.70
  A 0.43 0.43 0.0 0 0 577.29 173.00
  Z"
/>
<path fill="#006241" d="
  M 587.91 171.31
  A 2.19 2.19 0.0 0 1 591.95 171.32
  L 596.77 182.99
  A 0.55 0.55 0.0 0 1 596.26 183.75
  L 593.77 183.75
  A 0.65 0.65 0.0 0 1 593.12 183.15
  C 592.82 179.98 586.93 179.94 586.70 183.00
  A 0.77 0.76 2.0 0 1 585.93 183.71
  L 583.36 183.71
  Q 582.73 183.71 582.97 183.14
  L 587.91 171.31
  Z
  M 589.03 176.62
  L 588.43 177.79
  Q 588.07 178.50 588.87 178.50
  L 590.68 178.50
  A 0.51 0.51 0.0 0 0 591.17 177.84
  L 590.28 174.88
  A 0.49 0.49 0.0 0 0 589.32 174.96
  L 589.14 176.26
  A 1.00 0.98 -28.5 0 1 589.03 176.62
  Z"
/>
</svg>
