<?xml version="1.0" encoding="utf-8"?>
<!-- Generator: Adobe Illustrator 23.0.6, SVG Export Plug-In . SVG Version: 6.00 Build 0)  -->
<svg version="1.1" id="Layer_1" xmlns="http://www.w3.org/2000/svg" xmlns:xlink="http://www.w3.org/1999/xlink" x="0px" y="0px"
	 viewBox="0 0 150 36" style="enable-background:new 0 0 150 36;" xml:space="preserve">
<style type="text/css">
	.st0{fill-rule:evenodd;clip-rule:evenodd;fill:#005127;}
	.st1{fill-rule:evenodd;clip-rule:evenodd;fill:#D8232A;}
</style>
<g>
	<path class="st0" d="M150,16.4v0.7c0,0-0.8,0.3-0.8,1.3l0,15.8c0,0.6-0.5,1-1,1h-3.1l-6.8-10.8c0,0,0.1,0.9,0.1,2v8.8h-3.8V16.4
		h2.5c1.3,0,2.2,0.5,2.8,1.5l5.7,9c0,0-0.2-0.6-0.2-2v-8.5C145.4,16.4,150,16.4,150,16.4z M77.2,16.4v17.8c0,0.6-0.5,1-1,1H73
		l-6.8-10.8c0,0,0.1,0.9,0.1,2v8.8h-3.8V16.4H65c1.3,0,2.2,0.5,2.8,1.5l5.7,9c0,0-0.2-0.6-0.2-2v-8.5C73.4,16.4,77.2,16.4,77.2,16.4
		z M30.2,16.4h-5.1v7.2h-4.4v-7.2h-5.9v0.7c0,0,0.8,0.3,0.8,1.3v16.8h5.1v-8.1h4.4v8.1h5.1L30.2,16.4L30.2,16.4z M46.7,16.4H35.4
		v17.1c0,1,0.9,1.7,1.9,1.7h9.4c0.6,0,1-0.5,1-1v-2.4h-6.5c-0.4,0-0.8-0.3-0.8-0.8v-4h5.8v-3.4h-5.8v-3.8h7.2v-2.4
		C47.7,16.9,47.2,16.4,46.7,16.4z M57.4,16.4h-5.1v17.8c0,0.6,0.5,1,1,1h4.1V16.4L57.4,16.4z M129.3,16.4H118v17.1
		c0,0.9,0.9,1.7,1.9,1.7h9.4c0.6,0,1-0.5,1-1v-2.4h-6.5c-0.4,0-0.8-0.3-0.8-0.8v-4h5.8v-3.4H123v-3.8h7.2v-2.4
		C130.3,16.9,129.8,16.4,129.3,16.4z M93.6,16.4H82.3v17.1c0,0.9,0.9,1.7,1.9,1.7h9.4c0.6,0,1-0.5,1-1v-2.4h-6.5
		c-0.4,0-0.8-0.3-0.8-0.8v-4h5.8v-3.4h-5.8v-3.8h7.2v-2.4C94.6,16.9,94.1,16.4,93.6,16.4L93.6,16.4z M115,16.4h-3.7
		c-0.9,0-1.6,0.2-2.3,1l-5.2,5.9v-7h-5.1v17.8c0,0.6,0.5,1,1,1h4.1v-8.5l4.5,7c0.7,1,1.3,1.6,2.9,1.6h4.2l-7.1-11.1L115,16.4
		L115,16.4z"/>
	<path class="st1" d="M5,23.4c-0.1,0.1-0.3,0.1-0.4-0.1c-0.1-0.1-0.1-0.2,0-0.3c0.1-0.4,2.7-8.5,2.7-8.5L0.1,9.3
		C-0.1,9.1,0,8.7,0.3,8.7c0.4,0,8.8,0,8.8,0s2.6-8.1,2.7-8.5C11.9,0.1,12,0,12.2,0c0.1,0,0.2,0.1,0.2,0.2c0.1,0.4,2.7,8.5,2.7,8.5
		s8.3,0,8.8,0c0.3,0,0.4,0.4,0.2,0.6l-4.2,3.1h-5l-1.5-4.8l-1.5,4.8h-5l4.1,3l-1.5,4.8L5,23.4"/>
</g>
</svg>
