<?xml version="1.0" encoding="UTF-8" standalone="no"?>
<!-- Created with Inkscape (http://www.inkscape.org/) -->
<svg
   xmlns:dc="http://purl.org/dc/elements/1.1/"
   xmlns:cc="http://creativecommons.org/ns#"
   xmlns:rdf="http://www.w3.org/1999/02/22-rdf-syntax-ns#"
   xmlns:svg="http://www.w3.org/2000/svg"
   xmlns="http://www.w3.org/2000/svg"
   xmlns:sodipodi="http://sodipodi.sourceforge.net/DTD/sodipodi-0.dtd"
   xmlns:inkscape="http://www.inkscape.org/namespaces/inkscape"
   version="1.0"
   width="346.65778"
   height="100.85249"
   id="svg2"
   xml:space="preserve"
   sodipodi:version="0.32"
   inkscape:version="0.46"
   sodipodi:docname="Logo_Ferrero_kinder_Schokolade.svg"
   inkscape:output_extension="org.inkscape.output.svg.inkscape"><metadata
     id="metadata12"><rdf:RDF><cc:Work
         rdf:about=""><dc:format>image/svg+xml</dc:format><dc:type
           rdf:resource="http://purl.org/dc/dcmitype/StillImage" /></cc:Work></rdf:RDF></metadata><sodipodi:namedview
     inkscape:window-height="480"
     inkscape:window-width="640"
     inkscape:pageshadow="2"
     inkscape:pageopacity="0.0"
     guidetolerance="10.0"
     gridtolerance="10.0"
     objecttolerance="10.0"
     borderopacity="1.0"
     bordercolor="#666666"
     pagecolor="#ffffff"
     id="base"
     showgrid="false" /><defs
     id="defs5"><inkscape:perspective
       sodipodi:type="inkscape:persp3d"
       inkscape:vp_x="0 : 116.35909 : 1"
       inkscape:vp_y="0 : 1000 : 0"
       inkscape:vp_z="405.65607 : 116.35909 : 1"
       inkscape:persp3d-origin="202.82803 : 77.572728 : 1"
       id="perspective14" /></defs><path
     d="M 328.94535,43.73889 C 334.36752,38.67819 340.51265,36.8708 346.65778,38.31671 L 346.65778,55.667682 L 337.98231,55.667682 C 332.56013,56.752112 329.6683,60.005432 329.30684,65.427592 L 329.30684,99.045092 L 307.61812,99.045092 L 307.9796,39.76263 L 328.22238,39.76263 L 328.94535,43.73889 z M 199.53608,51.69141 C 197.00573,51.69141 195.19834,52.05289 193.39095,53.137322 C 191.94503,54.221762 190.49912,55.667682 189.41468,57.475062 L 186.88433,63.258722 L 186.52286,69.042382 L 186.52286,73.380132 L 188.33025,79.163782 C 190.8606,83.862992 194.47538,86.031862 199.53608,86.031862 C 201.70495,86.393342 203.51234,86.031862 205.31973,84.947422 C 207.12712,84.224482 208.21156,83.140022 209.29599,81.694112 C 210.38043,80.248202 211.46486,78.440812 212.18782,76.271952 C 212.5493,74.464552 212.91078,71.934202 212.91078,69.403852 C 212.91078,63.620202 211.46486,58.920982 208.93452,55.667682 C 207.85008,54.583242 206.40417,53.498802 204.59678,52.775852 C 203.15086,52.05289 201.34347,51.69141 199.53608,51.69141 z M 213.63374,18.796875 L 235.32245,19.15835 L 235.32245,99.045092 L 214.71817,99.045092 L 213.99521,95.791782 C 207.85008,98.683612 201.70495,100.12953 195.92129,100.12953 C 190.8606,100.12953 186.16138,99.045092 181.82364,96.876212 C 177.84737,95.068812 174.23259,92.176992 171.70224,88.200742 C 169.17189,84.585952 167.3645,80.609692 166.28006,76.271952 C 165.19563,71.572732 165.19563,67.234992 165.91859,62.897252 C 166.28006,58.198032 167.72598,54.221762 170.25633,50.60697 C 172.78668,46.63071 176.40146,43.73889 180.7392,41.57001 C 185.43842,39.03968 190.49912,37.59376 196.64425,37.59376 C 202.4279,37.23228 208.21156,39.03968 213.63374,42.65445 L 213.63374,18.796875 z M 260.98741,39.40115 C 264.24071,38.31671 267.8555,37.59376 271.10881,37.59376 C 297.49672,38.31671 308.34109,50.96846 304.36481,75.548992 L 259.90297,75.548992 C 259.90297,82.417082 263.87923,85.670392 271.83176,86.031862 C 277.25394,86.393342 280.50724,84.224482 281.59169,80.248202 L 302.9189,80.248202 C 300.38855,93.622902 290.26716,100.491 272.55472,100.85248 C 268.21699,100.85248 263.87923,100.12953 259.90297,99.045092 C 255.92671,97.599182 251.95045,95.430302 248.69715,92.899952 C 245.44383,90.008132 242.91349,86.754822 241.1061,83.140022 C 239.2987,79.163782 238.21427,74.464552 238.21427,69.765332 C 238.21427,64.343162 239.2987,59.282452 241.82905,54.944712 C 243.63645,50.96846 246.52827,47.35366 250.14306,44.82333 C 253.39636,42.29297 257.01115,40.48559 260.98741,39.40115 z M 266.0481,54.221762 C 262.7948,55.667682 260.98741,58.198032 259.90297,61.812812 L 284.12202,61.812812 C 283.76055,58.559502 282.31463,56.390632 279.78429,54.583242 C 277.97688,53.137322 275.44655,52.414372 272.55472,52.775852 C 270.02436,52.414372 267.8555,53.137322 266.0481,54.221762 z M 97.960651,17.350963 L 75.548991,17.350963 L 75.548991,34.33985 L 97.960651,34.33985 L 97.960651,17.350963 z M 127.2404,53.860292 C 125.433,54.944712 124.34857,56.752112 123.98709,58.920982 L 123.98709,99.045092 L 101.93691,99.406562 L 102.29839,39.03968 L 122.54118,39.03968 L 122.54118,42.65445 L 126.87892,40.48559 L 133.02405,39.03968 C 137.72327,37.95524 142.42249,37.95524 146.39875,38.67819 C 151.09797,39.76263 155.07424,41.57001 157.96606,44.82333 C 161.21937,48.43811 162.66528,53.498802 162.66528,59.643942 L 162.66528,99.045092 L 140.6151,99.045092 L 140.6151,59.282452 C 140.25362,56.752112 139.53066,54.944712 138.08475,53.860292 C 136.27736,52.775852 134.46997,52.05289 132.66257,52.05289 C 130.4937,52.05289 128.68631,52.775852 127.2404,53.860292 z M 75.187507,99.045092 L 97.960651,99.045092 L 97.960651,39.03968 L 75.187507,39.03968 L 75.187507,99.045092 z"
     id="kinder_inder"
     style="fill:#e00810;fill-opacity:1;fill-rule:evenodd;stroke:none" /><path
     d="M 24.580532,43.01593 L 46.269236,17.712438 L 74.464551,17.712438 L 48.076627,49.88403 L 73.741595,99.045092 L 46.992192,99.045092 L 31.087142,69.403852 L 24.219053,77.356382 L 24.219053,99.045092 L 0,99.045092 L 0,0 L 24.580532,0 L 24.580532,43.01593"
     id="kinder_k"
     style="fill:#000000;fill-opacity:1;fill-rule:evenodd;stroke:none" /></svg>