<svg height="38" viewBox="0 0 250.83 73" width="130" xmlns="http://www.w3.org/2000/svg">
 <title>add-usersAsset 1</title>
 <g>
  <g>
   <path d="m73.15 71.92h13.76a5.3 5.3 0 0 0 5.3-5.3v-1.17a14.58 14.58 0 0 0 12.4 6.47h11.73a5.3 5.3 0 0 0 5.3-5.3v-.46a26.32 26.32 0 0 0 17.24 6.48 26.91 26.91 0 0 0 19.13-8v2a5.3 5.3 0 0 0 5.3 5.31h14.47a5.27 5.27 0 0 0 2.22-.51 5.21 5.21 0 0 0 2.23.51h14.42a5.29 5.29 0 0 0 5.35-5.36v-1a24.93 24.93 0 0 0 26.64 5.53 5.22 5.22 0 0 0 2.72.79h14.2a5.31 5.31 0 0 0 5.31-5.31v-42.6a5.29 5.29 0 0 0 -4.89-5.28h-.53v-.38a6.75 6.75 0 1 0 -13.49 0v.36h-.57a5.35 5.35 0 0 0 -3.09 1 23.35 23.35 0 0 0 -8.9-1.83 24.88 24.88 0 0 0 -17.4 7.22v-19.78a5.31 5.31 0 0 0 -5.35-5.31h-14.42a5.32 5.32 0 0 0 -2.23.51 5.21 5.21 0 0 0 -2.23-.51h-14.46a5.31 5.31 0 0 0 -5.31 5.31v19.12a26.81 26.81 0 0 0 -19.12-8.08 26.33 26.33 0 0 0 -17 6.22 5.23 5.23 0 0 0 -5.08-3.89h-2.88v-9a5.31 5.31 0 0 0 -7.26-4.93l-13.86 5.5a5.31 5.31 0 0 0 -3.34 4.93v3.5h-.26a4.91 4.91 0 0 0 -1.16.14 5.29 5.29 0 0 0 -1.13-.13h-16.76a5.12 5.12 0 0 0 -2.22.51 5.29 5.29 0 0 0 -2.24-.51h-18a5.3 5.3 0 0 0 -4.84 3.14 21.2 21.2 0 0 0 -17-3.75 31 31 0 0 0 -4 1.42 5.36 5.36 0 0 0 -2.8-.81h-13.74a5.29 5.29 0 0 0 -5.31 5.31v42.59a5.12 5.12 0 0 0 5.11 5.29h18.05a5.32 5.32 0 0 0 2.23-.51 5.45 5.45 0 0 0 2.24.51h16.74a5.31 5.31 0 0 0 3.76-1.56 5.26 5.26 0 0 0 1.07-1.58 21.26 21.26 0 0 0 17.07 3.76 28.38 28.38 0 0 0 4-1.42 5.67 5.67 0 0 0 2.88.84z" fill="#fff"/>
   <path d="m94.74 56.33v-20.56h-5.54v-11.39h5.54v-8.8l13.86-5.53v14.33h8.19v11.4h-8.21v16.8c0 2.59 1.3 3.53 4.52 3.53h3.24v11h-11.73c-6.26 0-9.87-4.78-9.87-10.73" fill="#e2001a" fill-rule="evenodd"/>
   <path d="m163.35 5.69h14.48v61.34h-14.48z" fill="#e2001a"/>
   <path d="m182.31 5.68 14.42.01v61.34h-14.42z" fill="#e2001a" fill-rule="evenodd"/>
   <path d="m131.56 40.07c0-2.59 3.06-6 7.3-6 4.6 0 7.46 3.86 7.46 6zm28.76 10.34a22.22 22.22 0 0 1 -21.42 17.36c-12.16 0-21.74-10.19-21.74-22.83s9.58-22.94 21.74-22.94 22 10.26 22 22.9a21.78 21.78 0 0 1 -.28 3.63h-29.47a7.55 7.55 0 0 0 7.66 6.89 7.7 7.7 0 0 0 7.19-5.01z" fill="#e2001a" fill-rule="evenodd"/>
   <path d="m73.11 24.38h13.77v42.68h-13.76v-4.14c-3.34 3.23-4.51 3.86-8 4.9-5.19 1.26-11.83-1.12-14.34-4.57a15 15 0 0 1 -3.09-9.17v-29.7h13.71v25c0 4.31 2.36 7.22 5.92 7.22 3.26 0 5.79-2.88 5.79-7.22z" fill="#e2001a" fill-rule="evenodd"/>
   <path d="m19 67h-13.81v-42.62h13.81v4.16c3.34-3.24 4.51-3.87 8-4.92 5.17-1.27 11.79 1.12 14.33 4.58a15.65 15.65 0 0 1 3.11 9.16v29.64h-13.79v-25c0-4.3-2.32-7.2-5.91-7.2-3.24 0-5.77 2.87-5.77 7.2v25" fill-rule="evenodd"/>
   <path d="m213 45.65a9.47 9.47 0 1 1 9.47 9.72 9.6 9.6 0 0 1 -9.47-9.72m-14 .11c0-12.27 9.19-22.21 20.56-22.21a19.84 19.84 0 0 1 12 4.44v-3.61h14.14v42.67h-14.26v-3.44c-3 3-7.37 4.34-12 4.34-11.29.05-20.51-9.95-20.51-22.19z" fill="#e2001a" fill-rule="evenodd"/>
   <path d="m238 16.11h.3c.51 0 1.09.05 1.09.65s-.58.7-1.09.7h-.3zm-1 4.22h1v-2.08h.29c.46 0 .55.15.71.51l.59 1.57h1.16l-.83-1.95c-.09-.23-.27-.5-.53-.52a1.15 1.15 0 0 0 1.05-1.17c0-1.38-1.3-1.35-2.39-1.35h-1z" fill-rule="evenodd"/>
   <path d="m238.66 13.59a4.24 4.24 0 1 0 4.24 4.24 4.23 4.23 0 0 0 -4.24-4.24zm0 8.06a3.82 3.82 0 1 1 3.82-3.82 3.82 3.82 0 0 1 -3.82 3.82z"/>
  </g>
 </g>
</svg>
