<svg xmlns="http://www.w3.org/2000/svg" xmlns:xlink="http://www.w3.org/1999/xlink" width="1920" zoomAndPan="magnify" viewBox="0 0 1440 809.999993" height="1080" preserveAspectRatio="xMidYMid meet" version="1.0"><defs><clipPath id="2e9e34ca13"><path d="M 659.464844 345.660156 L 780.964844 345.660156 L 780.964844 440 L 659.464844 440 Z M 659.464844 345.660156 " clip-rule="nonzero"/></clipPath></defs><g clip-path="url(#2e9e34ca13)"><path fill="#00bf63" d="M 779.84375 365.167969 C 778.878906 364 777.441406 363.320312 775.925781 363.320312 L 689.175781 363.320312 L 685 349.296875 C 684.359375 347.136719 682.378906 345.660156 680.128906 345.660156 L 664.605469 345.660156 C 661.796875 345.660156 659.523438 347.9375 659.523438 350.746094 C 659.523438 353.554688 661.796875 355.828125 664.605469 355.828125 L 676.335938 355.828125 L 695.335938 419.65625 C 693.277344 423.433594 691.324219 428.839844 693.539062 433.367188 C 695.5 437.378906 699.933594 439.410156 706.710938 439.410156 C 706.832031 439.410156 706.957031 439.40625 707.078125 439.394531 C 707.519531 439.355469 751.320312 435.335938 766.421875 436.191406 C 768.625 436.3125 770.53125 434.625 770.65625 432.410156 C 770.78125 430.199219 769.089844 428.300781 766.875 428.179688 C 751.542969 427.316406 710.136719 431.054688 706.53125 431.382812 C 702.816406 431.359375 701.09375 430.542969 700.75 429.839844 C 700.367188 429.0625 700.640625 427.589844 701.285156 425.921875 C 701.394531 425.917969 701.5 425.914062 701.609375 425.902344 L 767.972656 417.875 C 770.164062 417.609375 771.9375 415.957031 772.351562 413.789062 L 780.917969 369.371094 C 781.203125 367.878906 780.8125 366.339844 779.84375 365.167969 Z M 743.011719 389.832031 L 722.140625 389.832031 L 722.140625 373.488281 L 743.011719 373.488281 Z M 698.503906 394.648438 L 717.324219 394.648438 L 717.324219 413.757812 L 704.648438 415.292969 Z M 722.140625 394.648438 L 743.011719 394.648438 L 743.011719 410.652344 L 722.140625 413.175781 Z M 766.617188 389.832031 L 747.828125 389.832031 L 747.828125 373.488281 L 769.769531 373.488281 Z M 717.324219 373.488281 L 717.324219 389.832031 L 697.070312 389.832031 L 692.203125 373.488281 Z M 747.828125 410.066406 L 747.828125 394.648438 L 765.6875 394.648438 L 763.070312 408.222656 Z M 747.828125 410.066406 " fill-opacity="1" fill-rule="nonzero"/></g><path fill="#00bf63" d="M 710.632812 453.488281 C 710.632812 454.15625 710.566406 454.816406 710.4375 455.472656 C 710.308594 456.125 710.113281 456.761719 709.859375 457.375 C 709.605469 457.992188 709.292969 458.578125 708.921875 459.132812 C 708.550781 459.6875 708.128906 460.199219 707.65625 460.671875 C 707.1875 461.144531 706.671875 461.566406 706.117188 461.9375 C 705.5625 462.304688 704.976562 462.621094 704.363281 462.875 C 703.746094 463.128906 703.109375 463.324219 702.457031 463.453125 C 701.800781 463.582031 701.140625 463.648438 700.472656 463.648438 C 699.808594 463.648438 699.144531 463.582031 698.492188 463.453125 C 697.835938 463.324219 697.203125 463.128906 696.585938 462.875 C 695.96875 462.621094 695.382812 462.304688 694.828125 461.9375 C 694.273438 461.566406 693.761719 461.144531 693.289062 460.671875 C 692.820312 460.199219 692.398438 459.6875 692.027344 459.132812 C 691.65625 458.578125 691.34375 457.992188 691.089844 457.375 C 690.832031 456.761719 690.640625 456.125 690.511719 455.472656 C 690.378906 454.816406 690.316406 454.15625 690.316406 453.488281 C 690.316406 452.820312 690.378906 452.160156 690.511719 451.507812 C 690.640625 450.851562 690.832031 450.21875 691.089844 449.601562 C 691.34375 448.984375 691.65625 448.398438 692.027344 447.84375 C 692.398438 447.289062 692.820312 446.777344 693.289062 446.304688 C 693.761719 445.835938 694.273438 445.414062 694.828125 445.042969 C 695.382812 444.671875 695.96875 444.359375 696.585938 444.105469 C 697.203125 443.847656 697.835938 443.65625 698.492188 443.527344 C 699.144531 443.394531 699.808594 443.332031 700.472656 443.332031 C 701.140625 443.332031 701.800781 443.394531 702.457031 443.527344 C 703.109375 443.65625 703.746094 443.847656 704.363281 444.105469 C 704.976562 444.359375 705.5625 444.671875 706.117188 445.042969 C 706.671875 445.414062 707.1875 445.835938 707.65625 446.304688 C 708.128906 446.777344 708.550781 447.289062 708.921875 447.84375 C 709.292969 448.398438 709.605469 448.984375 709.859375 449.601562 C 710.113281 450.21875 710.308594 450.851562 710.4375 451.507812 C 710.566406 452.160156 710.632812 452.820312 710.632812 453.488281 Z M 710.632812 453.488281 " fill-opacity="1" fill-rule="nonzero"/><path fill="#00bf63" d="M 768.429688 453.488281 C 768.429688 454.15625 768.367188 454.816406 768.238281 455.472656 C 768.105469 456.125 767.914062 456.761719 767.660156 457.375 C 767.402344 457.992188 767.089844 458.578125 766.71875 459.132812 C 766.347656 459.6875 765.929688 460.199219 765.457031 460.671875 C 764.984375 461.144531 764.472656 461.566406 763.917969 461.9375 C 763.363281 462.304688 762.777344 462.621094 762.160156 462.875 C 761.542969 463.128906 760.910156 463.324219 760.253906 463.453125 C 759.601562 463.582031 758.941406 463.648438 758.273438 463.648438 C 757.605469 463.648438 756.945312 463.582031 756.289062 463.453125 C 755.636719 463.324219 755 463.128906 754.386719 462.875 C 753.769531 462.621094 753.183594 462.304688 752.628906 461.9375 C 752.074219 461.566406 751.5625 461.144531 751.089844 460.671875 C 750.617188 460.199219 750.195312 459.6875 749.824219 459.132812 C 749.457031 458.578125 749.140625 457.992188 748.886719 457.375 C 748.632812 456.761719 748.4375 456.125 748.308594 455.472656 C 748.179688 454.816406 748.113281 454.15625 748.113281 453.488281 C 748.113281 452.820312 748.179688 452.160156 748.308594 451.507812 C 748.4375 450.851562 748.632812 450.21875 748.886719 449.601562 C 749.140625 448.984375 749.457031 448.398438 749.824219 447.84375 C 750.195312 447.289062 750.617188 446.777344 751.089844 446.304688 C 751.5625 445.835938 752.074219 445.414062 752.628906 445.042969 C 753.183594 444.671875 753.769531 444.359375 754.386719 444.105469 C 755 443.847656 755.636719 443.65625 756.289062 443.527344 C 756.945312 443.394531 757.605469 443.332031 758.273438 443.332031 C 758.941406 443.332031 759.601562 443.394531 760.253906 443.527344 C 760.910156 443.65625 761.542969 443.847656 762.160156 444.105469 C 762.777344 444.359375 763.363281 444.671875 763.917969 445.042969 C 764.472656 445.414062 764.984375 445.835938 765.457031 446.304688 C 765.929688 446.777344 766.347656 447.289062 766.71875 447.84375 C 767.089844 448.398438 767.402344 448.984375 767.660156 449.601562 C 767.914062 450.21875 768.105469 450.851562 768.238281 451.507812 C 768.367188 452.160156 768.429688 452.820312 768.429688 453.488281 Z M 768.429688 453.488281 " fill-opacity="1" fill-rule="nonzero"/></svg>